<svg width="42" height="42" viewBox="0 0 42 42" fill="none" >
<path opacity="0.08" d="M4.15183 7.86621C6.20481 7.86621 7.86908 6.20225 7.86908 4.14966C7.86908 2.09706 6.20481 0.433105 4.15183 0.433105C2.09884 0.433105 0.43457 2.09706 0.43457 4.14966C0.43457 6.20225 2.09884 7.86621 4.15183 7.86621Z" fill="url(#paint0_linear_521_3)"/>
<path d="M15.3036 7.86621C17.3565 7.86621 19.0208 6.20225 19.0208 4.14966C19.0208 2.09706 17.3565 0.433105 15.3036 0.433105C13.2506 0.433105 11.5863 2.09706 11.5863 4.14966C11.5863 6.20225 13.2506 7.86621 15.3036 7.86621Z" fill="url(#paint1_linear_521_3)"/>
<path d="M26.4553 7.86621C28.5083 7.86621 30.1725 6.20225 30.1725 4.14966C30.1725 2.09706 28.5083 0.433105 26.4553 0.433105C24.4023 0.433105 22.738 2.09706 22.738 4.14966C22.738 6.20225 24.4023 7.86621 26.4553 7.86621Z" fill="url(#paint2_linear_521_3)"/>
<path opacity="0.08" d="M37.607 7.86621C39.66 7.86621 41.3243 6.20225 41.3243 4.14966C41.3243 2.09706 39.66 0.433105 37.607 0.433105C35.554 0.433105 33.8898 2.09706 33.8898 4.14966C33.8898 6.20225 35.554 7.86621 37.607 7.86621Z" fill="url(#paint3_linear_521_3)"/>
<path d="M26.4553 19.0159C28.5083 19.0159 30.1725 17.3519 30.1725 15.2993C30.1725 13.2467 28.5083 11.5828 26.4553 11.5828C24.4023 11.5828 22.738 13.2467 22.738 15.2993C22.738 17.3519 24.4023 19.0159 26.4553 19.0159Z" fill="url(#paint4_linear_521_3)"/>
<path d="M37.607 19.0159C39.66 19.0159 41.3243 17.3519 41.3243 15.2993C41.3243 13.2467 39.66 11.5828 37.607 11.5828C35.554 11.5828 33.8898 13.2467 33.8898 15.2993C33.8898 17.3519 35.554 19.0159 37.607 19.0159Z" fill="url(#paint5_linear_521_3)"/>
<path opacity="0.08" d="M15.3036 19.0159C17.3565 19.0159 19.0208 17.3519 19.0208 15.2993C19.0208 13.2467 17.3565 11.5828 15.3036 11.5828C13.2506 11.5828 11.5863 13.2467 11.5863 15.2993C11.5863 17.3519 13.2506 19.0159 15.3036 19.0159Z" fill="url(#paint6_linear_521_3)"/>
<path d="M4.15183 19.0159C6.20481 19.0159 7.86908 17.3519 7.86908 15.2993C7.86908 13.2467 6.20481 11.5828 4.15183 11.5828C2.09884 11.5828 0.43457 13.2467 0.43457 15.2993C0.43457 17.3519 2.09884 19.0159 4.15183 19.0159Z" fill="url(#paint7_linear_521_3)"/>
<path d="M4.15183 30.1655C6.20481 30.1655 7.86908 28.5016 7.86908 26.449C7.86908 24.3964 6.20481 22.7324 4.15183 22.7324C2.09884 22.7324 0.43457 24.3964 0.43457 26.449C0.43457 28.5016 2.09884 30.1655 4.15183 30.1655Z" fill="url(#paint8_linear_521_3)"/>
<path opacity="0.08" d="M4.15183 41.3152C6.20481 41.3152 7.86908 39.6512 7.86908 37.5986C7.86908 35.546 6.20481 33.8821 4.15183 33.8821C2.09884 33.8821 0.43457 35.546 0.43457 37.5986C0.43457 39.6512 2.09884 41.3152 4.15183 41.3152Z" fill="url(#paint9_linear_521_3)"/>
<path d="M15.3036 30.1655C17.3565 30.1655 19.0208 28.5016 19.0208 26.449C19.0208 24.3964 17.3565 22.7324 15.3036 22.7324C13.2506 22.7324 11.5863 24.3964 11.5863 26.449C11.5863 28.5016 13.2506 30.1655 15.3036 30.1655Z" fill="url(#paint10_linear_521_3)"/>
<path d="M15.3036 41.3152C17.3565 41.3152 19.0208 39.6512 19.0208 37.5986C19.0208 35.546 17.3565 33.8821 15.3036 33.8821C13.2506 33.8821 11.5863 35.546 11.5863 37.5986C11.5863 39.6512 13.2506 41.3152 15.3036 41.3152Z" fill="url(#paint11_linear_521_3)"/>
<path opacity="0.08" d="M26.4553 30.1655C28.5083 30.1655 30.1725 28.5016 30.1725 26.449C30.1725 24.3964 28.5083 22.7324 26.4553 22.7324C24.4023 22.7324 22.738 24.3964 22.738 26.449C22.738 28.5016 24.4023 30.1655 26.4553 30.1655Z" fill="url(#paint12_linear_521_3)"/>
<path d="M26.4553 41.3152C28.5083 41.3152 30.1725 39.6512 30.1725 37.5986C30.1725 35.546 28.5083 33.8821 26.4553 33.8821C24.4023 33.8821 22.738 35.546 22.738 37.5986C22.738 39.6512 24.4023 41.3152 26.4553 41.3152Z" fill="url(#paint13_linear_521_3)"/>
<path d="M37.607 30.1655C39.66 30.1655 41.3243 28.5016 41.3243 26.449C41.3243 24.3964 39.66 22.7324 37.607 22.7324C35.554 22.7324 33.8898 24.3964 33.8898 26.449C33.8898 28.5016 35.554 30.1655 37.607 30.1655Z" fill="url(#paint14_linear_521_3)"/>
<path opacity="0.08" d="M37.607 41.3152C39.66 41.3152 41.3243 39.6512 41.3243 37.5986C41.3243 35.546 39.66 33.8821 37.607 33.8821C35.554 33.8821 33.8898 35.546 33.8898 37.5986C33.8898 39.6512 35.554 41.3152 37.607 41.3152Z" fill="url(#paint15_linear_521_3)"/>
<defs>
<linearGradient id="paint0_linear_521_3" x1="0.43457" y1="0.433105" x2="7.86768" y2="7.86762" gradientUnits="userSpaceOnUse">
<stop stop-color="#00D9C0"/>
<stop offset="0.354" stop-color="#00CBCB"/>
<stop offset="0.698" stop-color="#00BCD8"/>
<stop offset="1" stop-color="#00A8E8"/>
</linearGradient>
<linearGradient id="paint1_linear_521_3" x1="11.5863" y1="0.433105" x2="19.0194" y2="7.86762" gradientUnits="userSpaceOnUse">
<stop stop-color="#00D9C0"/>
<stop offset="0.354" stop-color="#00CBCB"/>
<stop offset="0.698" stop-color="#00BCD8"/>
<stop offset="1" stop-color="#00A8E8"/>
</linearGradient>
<linearGradient id="paint2_linear_521_3" x1="22.738" y1="0.433105" x2="30.1711" y2="7.86762" gradientUnits="userSpaceOnUse">
<stop stop-color="#00D9C0"/>
<stop offset="0.354" stop-color="#00CBCB"/>
<stop offset="0.698" stop-color="#00BCD8"/>
<stop offset="1" stop-color="#00A8E8"/>
</linearGradient>
<linearGradient id="paint3_linear_521_3" x1="33.8898" y1="0.433105" x2="41.3229" y2="7.86762" gradientUnits="userSpaceOnUse">
<stop stop-color="#00D9C0"/>
<stop offset="0.354" stop-color="#00CBCB"/>
<stop offset="0.698" stop-color="#00BCD8"/>
<stop offset="1" stop-color="#00A8E8"/>
</linearGradient>
<linearGradient id="paint4_linear_521_3" x1="22.738" y1="11.5828" x2="30.1711" y2="19.0173" gradientUnits="userSpaceOnUse">
<stop stop-color="#00D9C0"/>
<stop offset="0.354" stop-color="#00CBCB"/>
<stop offset="0.698" stop-color="#00BCD8"/>
<stop offset="1" stop-color="#00A8E8"/>
</linearGradient>
<linearGradient id="paint5_linear_521_3" x1="33.8898" y1="11.5828" x2="41.3229" y2="19.0173" gradientUnits="userSpaceOnUse">
<stop stop-color="#00D9C0"/>
<stop offset="0.354" stop-color="#00CBCB"/>
<stop offset="0.698" stop-color="#00BCD8"/>
<stop offset="1" stop-color="#00A8E8"/>
</linearGradient>
<linearGradient id="paint6_linear_521_3" x1="11.5863" y1="11.5828" x2="19.0194" y2="19.0173" gradientUnits="userSpaceOnUse">
<stop stop-color="#00D9C0"/>
<stop offset="0.354" stop-color="#00CBCB"/>
<stop offset="0.698" stop-color="#00BCD8"/>
<stop offset="1" stop-color="#00A8E8"/>
</linearGradient>
<linearGradient id="paint7_linear_521_3" x1="0.43457" y1="11.5828" x2="7.86768" y2="19.0173" gradientUnits="userSpaceOnUse">
<stop stop-color="#00D9C0"/>
<stop offset="0.354" stop-color="#00CBCB"/>
<stop offset="0.698" stop-color="#00BCD8"/>
<stop offset="1" stop-color="#00A8E8"/>
</linearGradient>
<linearGradient id="paint8_linear_521_3" x1="0.43457" y1="22.7324" x2="7.86768" y2="30.1669" gradientUnits="userSpaceOnUse">
<stop stop-color="#00D9C0"/>
<stop offset="0.354" stop-color="#00CBCB"/>
<stop offset="0.698" stop-color="#00BCD8"/>
<stop offset="1" stop-color="#00A8E8"/>
</linearGradient>
<linearGradient id="paint9_linear_521_3" x1="0.43457" y1="33.8821" x2="7.86768" y2="41.3166" gradientUnits="userSpaceOnUse">
<stop stop-color="#00D9C0"/>
<stop offset="0.354" stop-color="#00CBCB"/>
<stop offset="0.698" stop-color="#00BCD8"/>
<stop offset="1" stop-color="#00A8E8"/>
</linearGradient>
<linearGradient id="paint10_linear_521_3" x1="11.5863" y1="22.7324" x2="19.0194" y2="30.1669" gradientUnits="userSpaceOnUse">
<stop stop-color="#00D9C0"/>
<stop offset="0.354" stop-color="#00CBCB"/>
<stop offset="0.698" stop-color="#00BCD8"/>
<stop offset="1" stop-color="#00A8E8"/>
</linearGradient>
<linearGradient id="paint11_linear_521_3" x1="11.5863" y1="33.8821" x2="19.0194" y2="41.3166" gradientUnits="userSpaceOnUse">
<stop stop-color="#00D9C0"/>
<stop offset="0.354" stop-color="#00CBCB"/>
<stop offset="0.698" stop-color="#00BCD8"/>
<stop offset="1" stop-color="#00A8E8"/>
</linearGradient>
<linearGradient id="paint12_linear_521_3" x1="22.738" y1="22.7324" x2="30.1711" y2="30.1669" gradientUnits="userSpaceOnUse">
<stop stop-color="#00D9C0"/>
<stop offset="0.354" stop-color="#00CBCB"/>
<stop offset="0.698" stop-color="#00BCD8"/>
<stop offset="1" stop-color="#00A8E8"/>
</linearGradient>
<linearGradient id="paint13_linear_521_3" x1="22.738" y1="33.8821" x2="30.1711" y2="41.3166" gradientUnits="userSpaceOnUse">
<stop stop-color="#00D9C0"/>
<stop offset="0.354" stop-color="#00CBCB"/>
<stop offset="0.698" stop-color="#00BCD8"/>
<stop offset="1" stop-color="#00A8E8"/>
</linearGradient>
<linearGradient id="paint14_linear_521_3" x1="33.8898" y1="22.7324" x2="41.3229" y2="30.1669" gradientUnits="userSpaceOnUse">
<stop stop-color="#00D9C0"/>
<stop offset="0.354" stop-color="#00CBCB"/>
<stop offset="0.698" stop-color="#00BCD8"/>
<stop offset="1" stop-color="#00A8E8"/>
</linearGradient>
<linearGradient id="paint15_linear_521_3" x1="33.8898" y1="33.8821" x2="41.3229" y2="41.3166" gradientUnits="userSpaceOnUse">
<stop stop-color="#00D9C0"/>
<stop offset="0.354" stop-color="#00CBCB"/>
<stop offset="0.698" stop-color="#00BCD8"/>
<stop offset="1" stop-color="#00A8E8"/>
</linearGradient>
</defs>
</svg>
