<svg width="149" height="56" viewBox="0 0 149 56" fill="none" xmlns="http://www.w3.org/2000/svg">
<path opacity="0.08" d="M11.1518 14.8662C13.2048 14.8662 14.8691 13.2023 14.8691 11.1497C14.8691 9.09706 13.2048 7.43311 11.1518 7.43311C9.09884 7.43311 7.43457 9.09706 7.43457 11.1497C7.43457 13.2023 9.09884 14.8662 11.1518 14.8662Z" fill="url(#paint0_linear_439_50)"/>
<path d="M22.3034 14.8662C24.3564 14.8662 26.0207 13.2023 26.0207 11.1497C26.0207 9.09706 24.3564 7.43311 22.3034 7.43311C20.2505 7.43311 18.5862 9.09706 18.5862 11.1497C18.5862 13.2023 20.2505 14.8662 22.3034 14.8662Z" fill="url(#paint1_linear_439_50)"/>
<path d="M33.4553 14.8662C35.5083 14.8662 37.1725 13.2023 37.1725 11.1497C37.1725 9.09706 35.5083 7.43311 33.4553 7.43311C31.4023 7.43311 29.738 9.09706 29.738 11.1497C29.738 13.2023 31.4023 14.8662 33.4553 14.8662Z" fill="url(#paint2_linear_439_50)"/>
<path opacity="0.08" d="M44.6071 14.8662C46.6601 14.8662 48.3244 13.2023 48.3244 11.1497C48.3244 9.09706 46.6601 7.43311 44.6071 7.43311C42.5542 7.43311 40.8899 9.09706 40.8899 11.1497C40.8899 13.2023 42.5542 14.8662 44.6071 14.8662Z" fill="url(#paint3_linear_439_50)"/>
<path d="M33.4553 26.0159C35.5083 26.0159 37.1725 24.3519 37.1725 22.2993C37.1725 20.2467 35.5083 18.5828 33.4553 18.5828C31.4023 18.5828 29.738 20.2467 29.738 22.2993C29.738 24.3519 31.4023 26.0159 33.4553 26.0159Z" fill="url(#paint4_linear_439_50)"/>
<path d="M44.6071 26.0159C46.6601 26.0159 48.3244 24.3519 48.3244 22.2993C48.3244 20.2467 46.6601 18.5828 44.6071 18.5828C42.5542 18.5828 40.8899 20.2467 40.8899 22.2993C40.8899 24.3519 42.5542 26.0159 44.6071 26.0159Z" fill="url(#paint5_linear_439_50)"/>
<path opacity="0.08" d="M22.3034 26.0159C24.3564 26.0159 26.0207 24.3519 26.0207 22.2993C26.0207 20.2467 24.3564 18.5828 22.3034 18.5828C20.2505 18.5828 18.5862 20.2467 18.5862 22.2993C18.5862 24.3519 20.2505 26.0159 22.3034 26.0159Z" fill="url(#paint6_linear_439_50)"/>
<path d="M11.1518 26.0159C13.2048 26.0159 14.8691 24.3519 14.8691 22.2993C14.8691 20.2467 13.2048 18.5828 11.1518 18.5828C9.09884 18.5828 7.43457 20.2467 7.43457 22.2993C7.43457 24.3519 9.09884 26.0159 11.1518 26.0159Z" fill="url(#paint7_linear_439_50)"/>
<path d="M11.1518 37.1655C13.2048 37.1655 14.8691 35.5016 14.8691 33.449C14.8691 31.3964 13.2048 29.7324 11.1518 29.7324C9.09884 29.7324 7.43457 31.3964 7.43457 33.449C7.43457 35.5016 9.09884 37.1655 11.1518 37.1655Z" fill="url(#paint8_linear_439_50)"/>
<path opacity="0.08" d="M11.1518 48.3152C13.2048 48.3152 14.8691 46.6512 14.8691 44.5986C14.8691 42.546 13.2048 40.8821 11.1518 40.8821C9.09884 40.8821 7.43457 42.546 7.43457 44.5986C7.43457 46.6512 9.09884 48.3152 11.1518 48.3152Z" fill="url(#paint9_linear_439_50)"/>
<path d="M22.3034 37.1655C24.3564 37.1655 26.0207 35.5016 26.0207 33.449C26.0207 31.3964 24.3564 29.7324 22.3034 29.7324C20.2505 29.7324 18.5862 31.3964 18.5862 33.449C18.5862 35.5016 20.2505 37.1655 22.3034 37.1655Z" fill="url(#paint10_linear_439_50)"/>
<path d="M22.3034 48.3152C24.3564 48.3152 26.0207 46.6512 26.0207 44.5986C26.0207 42.546 24.3564 40.8821 22.3034 40.8821C20.2505 40.8821 18.5862 42.546 18.5862 44.5986C18.5862 46.6512 20.2505 48.3152 22.3034 48.3152Z" fill="url(#paint11_linear_439_50)"/>
<path opacity="0.08" d="M33.4553 37.1655C35.5083 37.1655 37.1725 35.5016 37.1725 33.449C37.1725 31.3964 35.5083 29.7324 33.4553 29.7324C31.4023 29.7324 29.738 31.3964 29.738 33.449C29.738 35.5016 31.4023 37.1655 33.4553 37.1655Z" fill="url(#paint12_linear_439_50)"/>
<path d="M33.4553 48.3152C35.5083 48.3152 37.1725 46.6512 37.1725 44.5986C37.1725 42.546 35.5083 40.8821 33.4553 40.8821C31.4023 40.8821 29.738 42.546 29.738 44.5986C29.738 46.6512 31.4023 48.3152 33.4553 48.3152Z" fill="url(#paint13_linear_439_50)"/>
<path d="M44.6071 37.1655C46.6601 37.1655 48.3244 35.5016 48.3244 33.449C48.3244 31.3964 46.6601 29.7324 44.6071 29.7324C42.5542 29.7324 40.8899 31.3964 40.8899 33.449C40.8899 35.5016 42.5542 37.1655 44.6071 37.1655Z" fill="url(#paint14_linear_439_50)"/>
<path opacity="0.08" d="M44.6071 48.3152C46.6601 48.3152 48.3244 46.6512 48.3244 44.5986C48.3244 42.546 46.6601 40.8821 44.6071 40.8821C42.5542 40.8821 40.8899 42.546 40.8899 44.5986C40.8899 46.6512 42.5542 48.3152 44.6071 48.3152Z" fill="url(#paint15_linear_439_50)"/>
<path d="M67.8276 34.1923H71.991V27.8494H68.125V24.8761H75.1135V34.1923H78.682V37.1655H67.8276V34.1923ZM75.8817 21.2339C75.8817 21.5644 75.8157 21.8781 75.6834 22.1754C75.5694 22.4538 75.4009 22.7065 75.1878 22.9187C74.9731 23.117 74.7169 23.282 74.4196 23.4143C74.1365 23.5303 73.8333 23.5893 73.5274 23.5877C73.1969 23.5877 72.8915 23.5298 72.6105 23.4143C72.3387 23.2883 72.0879 23.1211 71.8671 22.9187C71.6517 22.7031 71.4756 22.4515 71.3466 22.1754C71.2305 21.8752 71.1717 21.5558 71.1732 21.2339C71.1732 20.9034 71.2311 20.5981 71.3466 20.3172C71.4789 20.0198 71.6524 19.7721 71.8671 19.5738C72.0793 19.3607 72.3321 19.1922 72.6105 19.0783C72.8976 18.9448 73.2108 18.8771 73.5274 18.8801C73.8412 18.8801 74.1386 18.9461 74.4196 19.0783C74.7169 19.1938 74.9731 19.3592 75.1878 19.5738C75.4025 19.7721 75.5679 20.0198 75.6834 20.3172C75.8157 20.5981 75.8817 20.9034 75.8817 21.2339ZM85.9009 37.1655H82.7784V24.8761H85.9009V26.7096H86.347C86.628 26.0159 87.0824 25.4791 87.71 25.0991C88.3379 24.7191 89.073 24.5293 89.9156 24.5293C90.5103 24.5293 91.0639 24.6284 91.5759 24.8266C92.1047 25.0084 92.5672 25.2973 92.9637 25.6938C93.3602 26.0902 93.666 26.5941 93.8806 27.2052C94.112 27.8162 94.2276 28.5431 94.2276 29.3855V37.1655H91.1051V30.1784C91.1051 29.3029 90.8904 28.6175 90.4608 28.1219C90.0478 27.61 89.4447 27.3538 88.6517 27.3538C87.7267 27.3538 87.0328 27.6676 86.57 28.2954C86.124 28.9064 85.9009 29.7324 85.9009 30.7731V37.1655ZM100.431 42.1209H97.3083V24.8761H100.431V26.6601H100.877C101.207 25.9827 101.686 25.4624 102.314 25.0991C102.942 24.7191 103.743 24.5293 104.718 24.5293C105.445 24.5293 106.131 24.6696 106.775 24.9505C107.432 25.2283 108.016 25.652 108.485 26.1893C108.98 26.718 109.369 27.3702 109.65 28.1467C109.947 28.9231 110.096 29.8068 110.096 30.7978V31.2438C110.096 32.2513 109.955 33.1433 109.674 33.9197C109.393 34.6962 109.013 35.3568 108.534 35.9019C108.06 36.4269 107.476 36.8414 106.824 37.116C106.18 37.3802 105.478 37.5124 104.718 37.5124C104.156 37.5124 103.669 37.4545 103.256 37.339C102.843 37.2234 102.479 37.0664 102.165 36.8682C101.88 36.6808 101.622 36.4558 101.397 36.1992C101.199 35.935 101.026 35.6625 100.877 35.3816H100.431V42.1209ZM103.702 34.5392C104.676 34.5392 105.461 34.2418 106.056 33.6472C106.667 33.0361 106.973 32.2101 106.973 31.1695V30.8722C106.973 29.8315 106.667 29.0139 106.056 28.4192C105.461 27.8082 104.676 27.5025 103.702 27.5025C102.727 27.5025 101.934 27.8162 101.323 28.444C100.728 29.0551 100.431 29.8647 100.431 30.8722V31.1695C100.431 32.177 100.728 32.9946 101.323 33.6224C101.934 34.2335 102.727 34.5392 103.702 34.5392ZM121.453 24.8761H124.576V37.1655H121.453V35.3816H121.007C120.462 36.8022 119.289 37.5124 117.488 37.5124C116.877 37.5124 116.307 37.4133 115.778 37.2151C115.252 37.0186 114.777 36.7051 114.39 36.2983C113.994 35.8855 113.68 35.3732 113.449 34.7622C113.234 34.1344 113.126 33.3994 113.126 32.557V24.8761H116.249V31.9128C116.249 32.7884 116.456 33.4738 116.868 33.9693C117.281 34.4484 117.901 34.6878 118.727 34.6878C119.669 34.6878 120.354 34.3905 120.784 33.7959C121.23 33.1848 121.453 32.3588 121.453 31.3182V24.8761ZM127.954 24.8761H131.597V19.8216H134.719V24.8761H139.155V27.8494H134.719V33.449C134.719 33.9445 134.942 34.1923 135.388 34.1923H138.709V37.1655H133.505C132.943 37.1655 132.48 36.9837 132.117 36.6204C131.77 36.2571 131.597 35.7944 131.597 35.2329V27.8494H127.954V24.8761Z" fill="white"/>
<path opacity="0.7" d="M68.9454 49.676C68.6204 49.676 68.3301 49.6197 68.0744 49.507C67.8188 49.39 67.6173 49.2145 67.4699 48.9805C67.3226 48.7422 67.2489 48.441 67.2489 48.077V47.9535H67.6649V48.077C67.6649 48.4974 67.7841 48.8094 68.0224 49.013C68.2651 49.2124 68.5728 49.312 68.9454 49.312C69.3224 49.312 69.6128 49.2254 69.8164 49.052C70.0201 48.8744 70.1219 48.649 70.1219 48.376C70.1219 48.194 70.0764 48.0489 69.9854 47.9405C69.8988 47.8279 69.7753 47.739 69.6149 47.674C69.4589 47.6047 69.2769 47.544 69.0689 47.492L68.6529 47.388C68.4059 47.323 68.1849 47.2429 67.9899 47.1475C67.7949 47.0479 67.6411 46.92 67.5284 46.764C67.4158 46.6037 67.3594 46.4 67.3594 46.153C67.3594 45.906 67.4223 45.6915 67.5479 45.5095C67.6779 45.3275 67.8556 45.1889 68.0809 45.0935C68.3063 44.9939 68.5684 44.944 68.8674 44.944C69.1664 44.944 69.4351 44.996 69.6734 45.1C69.9161 45.204 70.1068 45.3579 70.2454 45.5615C70.3884 45.7609 70.4599 46.0122 70.4599 46.3155V46.621H70.0439V46.3155C70.0439 46.0772 69.9919 45.8844 69.8879 45.737C69.7839 45.5897 69.6431 45.4814 69.4654 45.412C69.2878 45.3427 69.0884 45.308 68.8674 45.308C68.5511 45.308 68.2889 45.3817 68.0809 45.529C67.8773 45.672 67.7754 45.88 67.7754 46.153C67.7754 46.335 67.8166 46.4802 67.8989 46.5885C67.9856 46.6969 68.1048 46.7835 68.2564 46.8485C68.4124 46.9135 68.5944 46.972 68.8024 47.024L69.2184 47.128C69.4568 47.1844 69.6756 47.2602 69.8749 47.3555C70.0743 47.4465 70.2346 47.5744 70.3559 47.739C70.4773 47.8994 70.5379 48.1117 70.5379 48.376C70.5379 48.6404 70.4708 48.87 70.3364 49.065C70.2064 49.26 70.0223 49.4117 69.7839 49.52C69.5456 49.624 69.2661 49.676 68.9454 49.676ZM71.4753 49.585V45.035H71.8653V46.9785H71.9433C71.9953 46.8745 72.0668 46.777 72.1578 46.686C72.2532 46.5907 72.3745 46.5149 72.5218 46.4585C72.6735 46.3979 72.862 46.3675 73.0873 46.3675C73.317 46.3675 73.5272 46.4152 73.7178 46.5105C73.9085 46.6059 74.0602 46.7489 74.1728 46.9395C74.2898 47.1302 74.3483 47.3707 74.3483 47.661V49.585H73.9583V47.687C73.9583 47.3404 73.8717 47.0934 73.6983 46.946C73.525 46.7944 73.2932 46.7185 73.0028 46.7185C72.6778 46.7185 72.407 46.8247 72.1903 47.037C71.9737 47.2494 71.8653 47.5722 71.8653 48.0055V49.585H71.4753ZM76.8983 49.676C76.5776 49.676 76.296 49.6089 76.0533 49.4745C75.815 49.3359 75.6286 49.1452 75.4943 48.9025C75.3643 48.6555 75.2993 48.3695 75.2993 48.0445V47.9665C75.2993 47.6415 75.3643 47.3577 75.4943 47.115C75.6286 46.868 75.815 46.6774 76.0533 46.543C76.296 46.4044 76.5776 46.335 76.8983 46.335C77.219 46.335 77.4985 46.4044 77.7368 46.543C77.9795 46.6774 78.1658 46.868 78.2958 47.115C78.4301 47.3577 78.4973 47.6415 78.4973 47.9665V48.0445C78.4973 48.3695 78.4301 48.6555 78.2958 48.9025C78.1658 49.1452 77.9795 49.3359 77.7368 49.4745C77.4985 49.6089 77.219 49.676 76.8983 49.676ZM76.8983 49.325C77.271 49.325 77.5656 49.208 77.7823 48.974C77.999 48.7357 78.1073 48.4215 78.1073 48.0315V47.9795C78.1073 47.5895 77.999 47.2775 77.7823 47.0435C77.5656 46.8052 77.271 46.686 76.8983 46.686C76.53 46.686 76.2353 46.8052 76.0143 47.0435C75.7976 47.2775 75.6893 47.5895 75.6893 47.9795V48.0315C75.6893 48.4215 75.7976 48.7357 76.0143 48.974C76.2353 49.208 76.53 49.325 76.8983 49.325ZM79.9235 49.585L79.2085 46.426H79.6115L80.2355 49.325H80.3135L81.126 46.426H81.789L82.6015 49.325H82.6795L83.3035 46.426H83.7065L82.9915 49.585H82.309L81.4965 46.686H81.4185L80.606 49.585H79.9235ZM86.3288 49.585V46.426H86.7058V46.842H86.7838C86.8488 46.725 86.9528 46.6167 87.0958 46.517C87.2388 46.413 87.4425 46.361 87.7068 46.361C87.9625 46.361 88.1683 46.4195 88.3243 46.5365C88.4847 46.6535 88.5995 46.7944 88.6688 46.959H88.7468C88.8205 46.7944 88.9353 46.6535 89.0913 46.5365C89.2473 46.4195 89.4662 46.361 89.7478 46.361C89.9645 46.361 90.153 46.4065 90.3133 46.4975C90.4737 46.5842 90.5993 46.7077 90.6903 46.868C90.7813 47.024 90.8268 47.2082 90.8268 47.4205V49.585H90.4368V47.4595C90.4368 47.2342 90.3675 47.0544 90.2288 46.92C90.0945 46.7814 89.9038 46.712 89.6568 46.712C89.4055 46.712 89.1953 46.7944 89.0263 46.959C88.8573 47.1194 88.7728 47.3555 88.7728 47.6675V49.585H88.3828V47.4595C88.3828 47.2342 88.3135 47.0544 88.1748 46.92C88.0405 46.7814 87.8498 46.712 87.6028 46.712C87.3515 46.712 87.1413 46.7944 86.9723 46.959C86.8033 47.1194 86.7188 47.3555 86.7188 47.6675V49.585H86.3288ZM93.3898 49.676C93.0648 49.676 92.781 49.6089 92.5383 49.4745C92.3 49.3359 92.1136 49.143 91.9793 48.896C91.845 48.649 91.7778 48.3652 91.7778 48.0445V47.9665C91.7778 47.6415 91.845 47.3577 91.9793 47.115C92.1136 46.868 92.2978 46.6774 92.5318 46.543C92.7701 46.4044 93.041 46.335 93.3443 46.335C93.639 46.335 93.899 46.3979 94.1243 46.5235C94.354 46.6449 94.5338 46.8225 94.6638 47.0565C94.7938 47.2862 94.8588 47.5614 94.8588 47.882V48.09H92.1678C92.1808 48.4844 92.3 48.7899 92.5253 49.0065C92.755 49.2189 93.0431 49.325 93.3898 49.325C93.6845 49.325 93.912 49.2579 94.0723 49.1235C94.237 48.9892 94.3626 48.8245 94.4493 48.6295L94.8003 48.7855C94.7353 48.9285 94.6443 49.0694 94.5273 49.208C94.4146 49.3424 94.2673 49.455 94.0853 49.546C93.9033 49.6327 93.6715 49.676 93.3898 49.676ZM92.1743 47.752H94.4623C94.445 47.4097 94.3345 47.1475 94.1308 46.9655C93.9271 46.7792 93.665 46.686 93.3443 46.686C93.028 46.686 92.7658 46.7792 92.5578 46.9655C92.3498 47.1475 92.222 47.4097 92.1743 47.752ZM97.8909 50.885V50.534H99.7369C99.8669 50.534 99.9319 50.469 99.9319 50.339V49.039H99.8539C99.8019 49.143 99.7282 49.2427 99.6329 49.338C99.5419 49.429 99.4205 49.5049 99.2689 49.5655C99.1215 49.6219 98.9352 49.65 98.7099 49.65C98.4845 49.65 98.2744 49.6024 98.0794 49.507C97.8887 49.4117 97.7349 49.2687 97.6179 49.078C97.5052 48.8874 97.4489 48.6469 97.4489 48.3565V46.426H97.8389V48.3305C97.8389 48.6729 97.9255 48.9199 98.0989 49.0715C98.2722 49.2232 98.504 49.299 98.7944 49.299C99.1194 49.299 99.3902 49.1929 99.6069 48.9805C99.8235 48.7682 99.9319 48.4454 99.9319 48.012V46.426H100.322V50.391C100.322 50.547 100.279 50.6684 100.192 50.755C100.11 50.8417 99.9839 50.885 99.8149 50.885H97.8909ZM102.911 49.676C102.59 49.676 102.309 49.6089 102.066 49.4745C101.828 49.3359 101.641 49.1452 101.507 48.9025C101.377 48.6555 101.312 48.3695 101.312 48.0445V47.9665C101.312 47.6415 101.377 47.3577 101.507 47.115C101.641 46.868 101.828 46.6774 102.066 46.543C102.309 46.4044 102.59 46.335 102.911 46.335C103.232 46.335 103.511 46.4044 103.749 46.543C103.992 46.6774 104.178 46.868 104.308 47.115C104.443 47.3577 104.51 47.6415 104.51 47.9665V48.0445C104.51 48.3695 104.443 48.6555 104.308 48.9025C104.178 49.1452 103.992 49.3359 103.749 49.4745C103.511 49.6089 103.232 49.676 102.911 49.676ZM102.911 49.325C103.284 49.325 103.578 49.208 103.795 48.974C104.012 48.7357 104.12 48.4215 104.12 48.0315V47.9795C104.12 47.5895 104.012 47.2775 103.795 47.0435C103.578 46.8052 103.284 46.686 102.911 46.686C102.543 46.686 102.248 46.8052 102.027 47.0435C101.81 47.2775 101.702 47.5895 101.702 47.9795V48.0315C101.702 48.4215 101.81 48.7357 102.027 48.974C102.248 49.208 102.543 49.325 102.911 49.325ZM106.714 49.65C106.489 49.65 106.279 49.6024 106.084 49.507C105.893 49.4117 105.739 49.2687 105.622 49.078C105.51 48.883 105.453 48.6404 105.453 48.35V46.426H105.843V48.324C105.843 48.6664 105.93 48.9155 106.103 49.0715C106.277 49.2232 106.508 49.299 106.799 49.299C107.124 49.299 107.395 49.1929 107.611 48.9805C107.828 48.7639 107.936 48.4389 107.936 48.0055V46.426H108.326V49.585H107.949V49H107.871C107.793 49.169 107.665 49.3207 107.488 49.455C107.31 49.585 107.052 49.65 106.714 49.65ZM109.472 49.585V46.426H109.849V46.8225H109.927C109.988 46.6795 110.077 46.5755 110.194 46.5105C110.315 46.4455 110.482 46.413 110.694 46.413H111.065V46.777H110.649C110.411 46.777 110.22 46.8442 110.077 46.9785C109.934 47.1129 109.862 47.323 109.862 47.609V49.585H109.472ZM114.802 49.676C114.421 49.676 114.094 49.585 113.821 49.403C113.552 49.221 113.387 48.9199 113.327 48.4995L113.71 48.428C113.745 48.6577 113.814 48.8397 113.918 48.974C114.026 49.104 114.156 49.1972 114.308 49.2535C114.464 49.3099 114.629 49.338 114.802 49.338C115.062 49.338 115.27 49.286 115.426 49.182C115.586 49.0737 115.667 48.9264 115.667 48.74C115.667 48.5494 115.591 48.4172 115.439 48.3435C115.292 48.2699 115.095 48.2114 114.848 48.168L114.549 48.116C114.349 48.0814 114.169 48.0294 114.009 47.96C113.849 47.8864 113.721 47.7889 113.626 47.6675C113.535 47.5462 113.489 47.3945 113.489 47.2125C113.489 46.9395 113.595 46.725 113.808 46.569C114.024 46.413 114.31 46.335 114.666 46.335C115.025 46.335 115.313 46.4174 115.53 46.582C115.751 46.7424 115.89 46.9764 115.946 47.284L115.582 47.362C115.539 47.1107 115.435 46.933 115.27 46.829C115.11 46.725 114.908 46.673 114.666 46.673C114.427 46.673 114.237 46.7185 114.094 46.8095C113.951 46.9005 113.879 47.0349 113.879 47.2125C113.879 47.3859 113.944 47.5137 114.074 47.596C114.204 47.674 114.382 47.7325 114.607 47.7715L114.906 47.8235C115.123 47.8582 115.318 47.9102 115.491 47.9795C115.664 48.0445 115.801 48.1377 115.901 48.259C116.005 48.3804 116.057 48.5407 116.057 48.74C116.057 49.039 115.944 49.2709 115.719 49.4355C115.493 49.5959 115.188 49.676 114.802 49.676ZM118.425 49.676C118.104 49.676 117.822 49.6089 117.58 49.4745C117.341 49.3359 117.155 49.1452 117.021 48.9025C116.891 48.6555 116.826 48.3695 116.826 48.0445V47.9665C116.826 47.6415 116.891 47.3577 117.021 47.115C117.155 46.868 117.341 46.6774 117.58 46.543C117.822 46.4044 118.104 46.335 118.425 46.335C118.745 46.335 119.025 46.4044 119.263 46.543C119.506 46.6774 119.692 46.868 119.822 47.115C119.957 47.3577 120.024 47.6415 120.024 47.9665V48.0445C120.024 48.3695 119.957 48.6555 119.822 48.9025C119.692 49.1452 119.506 49.3359 119.263 49.4745C119.025 49.6089 118.745 49.676 118.425 49.676ZM118.425 49.325C118.797 49.325 119.092 49.208 119.309 48.974C119.525 48.7357 119.634 48.4215 119.634 48.0315V47.9795C119.634 47.5895 119.525 47.2775 119.309 47.0435C119.092 46.8052 118.797 46.686 118.425 46.686C118.056 46.686 117.762 46.8052 117.541 47.0435C117.324 47.2775 117.216 47.5895 117.216 47.9795V48.0315C117.216 48.4215 117.324 48.7357 117.541 48.974C117.762 49.208 118.056 49.325 118.425 49.325ZM121.012 49.585V45.035H121.402V49.585H121.012ZM123.764 49.65C123.539 49.65 123.329 49.6024 123.134 49.507C122.943 49.4117 122.789 49.2687 122.672 49.078C122.559 48.883 122.503 48.6404 122.503 48.35V46.426H122.893V48.324C122.893 48.6664 122.98 48.9155 123.153 49.0715C123.326 49.2232 123.558 49.299 123.849 49.299C124.174 49.299 124.444 49.1929 124.661 48.9805C124.878 48.7639 124.986 48.4389 124.986 48.0055V46.426H125.376V49.585H124.999V49H124.921C124.843 49.169 124.715 49.3207 124.538 49.455C124.36 49.585 124.102 49.65 123.764 49.65ZM127.666 49.585C127.497 49.585 127.369 49.5417 127.283 49.455C127.2 49.3684 127.159 49.247 127.159 49.091V46.777H126.145V46.426H127.159V45.243H127.549V46.426H128.654V46.777H127.549V49.039C127.549 49.169 127.614 49.234 127.744 49.234H128.485V49.585H127.666ZM129.525 49.585V46.426H129.915V49.585H129.525ZM129.72 45.88C129.624 45.88 129.544 45.8475 129.479 45.7825C129.414 45.7175 129.382 45.6374 129.382 45.542C129.382 45.4424 129.414 45.3622 129.479 45.3015C129.544 45.2365 129.624 45.204 129.72 45.204C129.819 45.204 129.899 45.2365 129.96 45.3015C130.025 45.3622 130.058 45.4424 130.058 45.542C130.058 45.6374 130.025 45.7175 129.96 45.7825C129.899 45.8475 129.819 45.88 129.72 45.88ZM132.504 49.676C132.183 49.676 131.901 49.6089 131.659 49.4745C131.42 49.3359 131.234 49.1452 131.1 48.9025C130.97 48.6555 130.905 48.3695 130.905 48.0445V47.9665C130.905 47.6415 130.97 47.3577 131.1 47.115C131.234 46.868 131.42 46.6774 131.659 46.543C131.901 46.4044 132.183 46.335 132.504 46.335C132.824 46.335 133.104 46.4044 133.342 46.543C133.585 46.6774 133.771 46.868 133.901 47.115C134.036 47.3577 134.103 47.6415 134.103 47.9665V48.0445C134.103 48.3695 134.036 48.6555 133.901 48.9025C133.771 49.1452 133.585 49.3359 133.342 49.4745C133.104 49.6089 132.824 49.676 132.504 49.676ZM132.504 49.325C132.876 49.325 133.171 49.208 133.388 48.974C133.604 48.7357 133.713 48.4215 133.713 48.0315V47.9795C133.713 47.5895 133.604 47.2775 133.388 47.0435C133.171 46.8052 132.876 46.686 132.504 46.686C132.135 46.686 131.841 46.8052 131.62 47.0435C131.403 47.2775 131.295 47.5895 131.295 47.9795V48.0315C131.295 48.4215 131.403 48.7357 131.62 48.974C131.841 49.208 132.135 49.325 132.504 49.325ZM135.092 49.585V46.426H135.469V47.011H135.547C135.625 46.842 135.752 46.6925 135.93 46.5625C136.108 46.4282 136.366 46.361 136.704 46.361C136.933 46.361 137.143 46.4087 137.334 46.504C137.525 46.5994 137.676 46.7445 137.789 46.9395C137.906 47.1302 137.965 47.3707 137.965 47.661V49.585H137.575V47.687C137.575 47.3404 137.488 47.0912 137.315 46.9395C137.141 46.7879 136.909 46.712 136.619 46.712C136.294 46.712 136.023 46.8204 135.807 47.037C135.59 47.2494 135.482 47.5722 135.482 48.0055V49.585H135.092Z" fill="white"/>
<defs>
<linearGradient id="paint0_linear_439_50" x1="7.43457" y1="7.43311" x2="14.8677" y2="14.8676" gradientUnits="userSpaceOnUse">
<stop stop-color="#00D9C0"/>
<stop offset="0.354" stop-color="#00CBCB"/>
<stop offset="0.698" stop-color="#00BCD8"/>
<stop offset="1" stop-color="#00A8E8"/>
</linearGradient>
<linearGradient id="paint1_linear_439_50" x1="18.5862" y1="7.43311" x2="26.0193" y2="14.8676" gradientUnits="userSpaceOnUse">
<stop stop-color="#00D9C0"/>
<stop offset="0.354" stop-color="#00CBCB"/>
<stop offset="0.698" stop-color="#00BCD8"/>
<stop offset="1" stop-color="#00A8E8"/>
</linearGradient>
<linearGradient id="paint2_linear_439_50" x1="29.738" y1="7.43311" x2="37.1711" y2="14.8676" gradientUnits="userSpaceOnUse">
<stop stop-color="#00D9C0"/>
<stop offset="0.354" stop-color="#00CBCB"/>
<stop offset="0.698" stop-color="#00BCD8"/>
<stop offset="1" stop-color="#00A8E8"/>
</linearGradient>
<linearGradient id="paint3_linear_439_50" x1="40.8899" y1="7.43311" x2="48.323" y2="14.8676" gradientUnits="userSpaceOnUse">
<stop stop-color="#00D9C0"/>
<stop offset="0.354" stop-color="#00CBCB"/>
<stop offset="0.698" stop-color="#00BCD8"/>
<stop offset="1" stop-color="#00A8E8"/>
</linearGradient>
<linearGradient id="paint4_linear_439_50" x1="29.738" y1="18.5828" x2="37.1711" y2="26.0173" gradientUnits="userSpaceOnUse">
<stop stop-color="#00D9C0"/>
<stop offset="0.354" stop-color="#00CBCB"/>
<stop offset="0.698" stop-color="#00BCD8"/>
<stop offset="1" stop-color="#00A8E8"/>
</linearGradient>
<linearGradient id="paint5_linear_439_50" x1="40.8899" y1="18.5828" x2="48.323" y2="26.0173" gradientUnits="userSpaceOnUse">
<stop stop-color="#00D9C0"/>
<stop offset="0.354" stop-color="#00CBCB"/>
<stop offset="0.698" stop-color="#00BCD8"/>
<stop offset="1" stop-color="#00A8E8"/>
</linearGradient>
<linearGradient id="paint6_linear_439_50" x1="18.5862" y1="18.5828" x2="26.0193" y2="26.0173" gradientUnits="userSpaceOnUse">
<stop stop-color="#00D9C0"/>
<stop offset="0.354" stop-color="#00CBCB"/>
<stop offset="0.698" stop-color="#00BCD8"/>
<stop offset="1" stop-color="#00A8E8"/>
</linearGradient>
<linearGradient id="paint7_linear_439_50" x1="7.43457" y1="18.5828" x2="14.8677" y2="26.0173" gradientUnits="userSpaceOnUse">
<stop stop-color="#00D9C0"/>
<stop offset="0.354" stop-color="#00CBCB"/>
<stop offset="0.698" stop-color="#00BCD8"/>
<stop offset="1" stop-color="#00A8E8"/>
</linearGradient>
<linearGradient id="paint8_linear_439_50" x1="7.43457" y1="29.7324" x2="14.8677" y2="37.1669" gradientUnits="userSpaceOnUse">
<stop stop-color="#00D9C0"/>
<stop offset="0.354" stop-color="#00CBCB"/>
<stop offset="0.698" stop-color="#00BCD8"/>
<stop offset="1" stop-color="#00A8E8"/>
</linearGradient>
<linearGradient id="paint9_linear_439_50" x1="7.43457" y1="40.8821" x2="14.8677" y2="48.3166" gradientUnits="userSpaceOnUse">
<stop stop-color="#00D9C0"/>
<stop offset="0.354" stop-color="#00CBCB"/>
<stop offset="0.698" stop-color="#00BCD8"/>
<stop offset="1" stop-color="#00A8E8"/>
</linearGradient>
<linearGradient id="paint10_linear_439_50" x1="18.5862" y1="29.7324" x2="26.0193" y2="37.1669" gradientUnits="userSpaceOnUse">
<stop stop-color="#00D9C0"/>
<stop offset="0.354" stop-color="#00CBCB"/>
<stop offset="0.698" stop-color="#00BCD8"/>
<stop offset="1" stop-color="#00A8E8"/>
</linearGradient>
<linearGradient id="paint11_linear_439_50" x1="18.5862" y1="40.8821" x2="26.0193" y2="48.3166" gradientUnits="userSpaceOnUse">
<stop stop-color="#00D9C0"/>
<stop offset="0.354" stop-color="#00CBCB"/>
<stop offset="0.698" stop-color="#00BCD8"/>
<stop offset="1" stop-color="#00A8E8"/>
</linearGradient>
<linearGradient id="paint12_linear_439_50" x1="29.738" y1="29.7324" x2="37.1711" y2="37.1669" gradientUnits="userSpaceOnUse">
<stop stop-color="#00D9C0"/>
<stop offset="0.354" stop-color="#00CBCB"/>
<stop offset="0.698" stop-color="#00BCD8"/>
<stop offset="1" stop-color="#00A8E8"/>
</linearGradient>
<linearGradient id="paint13_linear_439_50" x1="29.738" y1="40.8821" x2="37.1711" y2="48.3166" gradientUnits="userSpaceOnUse">
<stop stop-color="#00D9C0"/>
<stop offset="0.354" stop-color="#00CBCB"/>
<stop offset="0.698" stop-color="#00BCD8"/>
<stop offset="1" stop-color="#00A8E8"/>
</linearGradient>
<linearGradient id="paint14_linear_439_50" x1="40.8899" y1="29.7324" x2="48.323" y2="37.1669" gradientUnits="userSpaceOnUse">
<stop stop-color="#00D9C0"/>
<stop offset="0.354" stop-color="#00CBCB"/>
<stop offset="0.698" stop-color="#00BCD8"/>
<stop offset="1" stop-color="#00A8E8"/>
</linearGradient>
<linearGradient id="paint15_linear_439_50" x1="40.8899" y1="40.8821" x2="48.323" y2="48.3166" gradientUnits="userSpaceOnUse">
<stop stop-color="#00D9C0"/>
<stop offset="0.354" stop-color="#00CBCB"/>
<stop offset="0.698" stop-color="#00BCD8"/>
<stop offset="1" stop-color="#00A8E8"/>
</linearGradient>
</defs>
</svg>
