<svg xmlns="http://www.w3.org/2000/svg" viewBox="0 0 481 180" fill="none" width="140">
  <circle opacity="0.08" cx="36" cy="36" r="12" fill="url(#input-logo_svg__paint0_linear_190_361)"></circle>
  <circle cx="72" cy="36" r="12" fill="url(#input-logo_svg__paint1_linear_190_361)"></circle>
  <circle cx="108" cy="36" r="12" fill="url(#input-logo_svg__paint2_linear_190_361)"></circle>
  <circle opacity="0.08" cx="144" cy="36" r="12" fill="url(#input-logo_svg__paint3_linear_190_361)"></circle>
  <circle cx="108" cy="72" r="12" fill="url(#input-logo_svg__paint4_linear_190_361)"></circle>
  <circle cx="144" cy="72" r="12" fill="url(#input-logo_svg__paint5_linear_190_361)"></circle>
  <circle opacity="0.08" cx="72" cy="72" r="12" fill="url(#input-logo_svg__paint6_linear_190_361)"></circle>
  <circle cx="36" cy="72" r="12" fill="url(#input-logo_svg__paint7_linear_190_361)"></circle>
  <circle cx="36" cy="108" r="12" fill="url(#input-logo_svg__paint8_linear_190_361)"></circle>
  <circle opacity="0.08" cx="36" cy="144" r="12" fill="url(#input-logo_svg__paint9_linear_190_361)"></circle>
  <circle cx="72" cy="108" r="12" fill="url(#input-logo_svg__paint10_linear_190_361)"></circle>
  <circle cx="72" cy="144" r="12" fill="url(#input-logo_svg__paint11_linear_190_361)"></circle>
  <circle opacity="0.08" cx="108" cy="108" r="12" fill="url(#input-logo_svg__paint12_linear_190_361)"></circle>
  <circle cx="108" cy="144" r="12" fill="url(#input-logo_svg__paint13_linear_190_361)"></circle>
  <circle cx="144" cy="108" r="12" fill="url(#input-logo_svg__paint14_linear_190_361)"></circle>
  <circle opacity="0.08" cx="144" cy="144" r="12" fill="url(#input-logo_svg__paint15_linear_190_361)"></circle>
  <path
    d="M218.96 110.4h13.44V89.92h-12.48v-9.6h22.56v30.08H254v9.6h-35.04v-9.6zm26-41.84c0 1.067-.213 2.08-.64 3.04a7.283 7.283 0 01-1.6 2.4c-.693.64-1.52 1.173-2.48 1.6a7.493 7.493 0 01-2.88.56c-1.067 0-2.053-.187-2.96-.56A9.417 9.417 0 01232 74a8.47 8.47 0 01-1.68-2.4 8.32 8.32 0 01-.56-3.04c0-1.067.187-2.053.56-2.96.427-.96.987-1.76 1.68-2.4a7.276 7.276 0 012.4-1.6 6.863 6.863 0 012.96-.64c1.013 0 1.973.213 2.88.64.96.373 1.787.907 2.48 1.6.693.64 1.227 1.44 1.6 2.4.427.907.64 1.893.64 2.96zM277.304 120h-10.08V80.32h10.08v5.92h1.44c.907-2.24 2.374-3.973 4.4-5.2 2.027-1.227 4.4-1.84 7.12-1.84 1.92 0 3.707.32 5.36.96 1.707.587 3.2 1.52 4.48 2.8 1.28 1.28 2.267 2.907 2.96 4.88.747 1.973 1.12 4.32 1.12 7.04V120h-10.08V97.44c0-2.827-.693-5.04-2.08-6.64-1.333-1.653-3.28-2.48-5.84-2.48-2.986 0-5.226 1.013-6.72 3.04-1.44 1.973-2.16 4.64-2.16 8V120zm46.905 16h-10.08V80.32h10.08v5.76h1.44c1.066-2.187 2.613-3.867 4.64-5.04 2.026-1.227 4.613-1.84 7.76-1.84 2.346 0 4.56.453 6.64 1.36a15.163 15.163 0 015.52 4c1.6 1.707 2.853 3.813 3.76 6.32.96 2.507 1.44 5.36 1.44 8.56v1.44c0 3.253-.454 6.133-1.36 8.64-.907 2.507-2.134 4.64-3.68 6.4a15.595 15.595 0 01-5.52 3.92c-2.08.853-4.347 1.28-6.8 1.28-1.814 0-3.387-.187-4.72-.56-1.334-.373-2.507-.88-3.52-1.52a12.23 12.23 0 01-2.48-2.16c-.64-.853-1.2-1.733-1.68-2.64h-1.44V136zm10.56-24.48c3.146 0 5.68-.96 7.6-2.88 1.973-1.973 2.96-4.64 2.96-8v-.96c0-3.36-.987-6-2.96-7.92-1.92-1.973-4.454-2.96-7.6-2.96-3.147 0-5.707 1.013-7.68 3.04-1.92 1.973-2.88 4.587-2.88 7.84v.96c0 3.253.96 5.893 2.88 7.92 1.973 1.973 4.533 2.96 7.68 2.96zm57.304-31.2h10.08V120h-10.08v-5.76h-1.44c-1.76 4.587-5.547 6.88-11.36 6.88-1.973 0-3.813-.32-5.52-.96a11.965 11.965 0 01-4.48-2.96c-1.28-1.333-2.293-2.987-3.04-4.96-.693-2.027-1.04-4.4-1.04-7.12v-24.8h10.08v22.72c0 2.827.667 5.04 2 6.64 1.333 1.547 3.333 2.32 6 2.32 3.04 0 5.253-.96 6.64-2.88 1.44-1.973 2.16-4.64 2.16-8v-20.8zm20.985 0h11.76V64h10.08v16.32h14.32v9.6h-14.32V108c0 1.6.72 2.4 2.16 2.4h10.72v9.6h-16.8c-1.814 0-3.307-.587-4.48-1.76-1.12-1.173-1.68-2.667-1.68-4.48V89.92h-11.76v-9.6z"
    fill="#fff"></path>
  <defs>
    <linearGradient id="input-logo_svg__paint0_linear_190_361" x1="24" y1="24" x2="48" y2="48"
      gradientUnits="userSpaceOnUse">
      <stop stop-color="#00D9C0"></stop>
      <stop offset="0.354" stop-color="#00CBCB"></stop>
      <stop offset="0.698" stop-color="#00BCD8"></stop>
      <stop offset="1" stop-color="#00A8E8"></stop>
    </linearGradient>
    <linearGradient id="input-logo_svg__paint1_linear_190_361" x1="60" y1="24" x2="84" y2="48"
      gradientUnits="userSpaceOnUse">
      <stop stop-color="#00D9C0"></stop>
      <stop offset="0.354" stop-color="#00CBCB"></stop>
      <stop offset="0.698" stop-color="#00BCD8"></stop>
      <stop offset="1" stop-color="#00A8E8"></stop>
    </linearGradient>
    <linearGradient id="input-logo_svg__paint2_linear_190_361" x1="96" y1="24" x2="120" y2="48"
      gradientUnits="userSpaceOnUse">
      <stop stop-color="#00D9C0"></stop>
      <stop offset="0.354" stop-color="#00CBCB"></stop>
      <stop offset="0.698" stop-color="#00BCD8"></stop>
      <stop offset="1" stop-color="#00A8E8"></stop>
    </linearGradient>
    <linearGradient id="input-logo_svg__paint3_linear_190_361" x1="132" y1="24" x2="156" y2="48"
      gradientUnits="userSpaceOnUse">
      <stop stop-color="#00D9C0"></stop>
      <stop offset="0.354" stop-color="#00CBCB"></stop>
      <stop offset="0.698" stop-color="#00BCD8"></stop>
      <stop offset="1" stop-color="#00A8E8"></stop>
    </linearGradient>
    <linearGradient id="input-logo_svg__paint4_linear_190_361" x1="96" y1="60" x2="120" y2="84"
      gradientUnits="userSpaceOnUse">
      <stop stop-color="#00D9C0"></stop>
      <stop offset="0.354" stop-color="#00CBCB"></stop>
      <stop offset="0.698" stop-color="#00BCD8"></stop>
      <stop offset="1" stop-color="#00A8E8"></stop>
    </linearGradient>
    <linearGradient id="input-logo_svg__paint5_linear_190_361" x1="132" y1="60" x2="156" y2="84"
      gradientUnits="userSpaceOnUse">
      <stop stop-color="#00D9C0"></stop>
      <stop offset="0.354" stop-color="#00CBCB"></stop>
      <stop offset="0.698" stop-color="#00BCD8"></stop>
      <stop offset="1" stop-color="#00A8E8"></stop>
    </linearGradient>
    <linearGradient id="input-logo_svg__paint6_linear_190_361" x1="60" y1="60" x2="84" y2="84"
      gradientUnits="userSpaceOnUse">
      <stop stop-color="#00D9C0"></stop>
      <stop offset="0.354" stop-color="#00CBCB"></stop>
      <stop offset="0.698" stop-color="#00BCD8"></stop>
      <stop offset="1" stop-color="#00A8E8"></stop>
    </linearGradient>
    <linearGradient id="input-logo_svg__paint7_linear_190_361" x1="24" y1="60" x2="48" y2="84"
      gradientUnits="userSpaceOnUse">
      <stop stop-color="#00D9C0"></stop>
      <stop offset="0.354" stop-color="#00CBCB"></stop>
      <stop offset="0.698" stop-color="#00BCD8"></stop>
      <stop offset="1" stop-color="#00A8E8"></stop>
    </linearGradient>
    <linearGradient id="input-logo_svg__paint8_linear_190_361" x1="24" y1="96" x2="48" y2="120"
      gradientUnits="userSpaceOnUse">
      <stop stop-color="#00D9C0"></stop>
      <stop offset="0.354" stop-color="#00CBCB"></stop>
      <stop offset="0.698" stop-color="#00BCD8"></stop>
      <stop offset="1" stop-color="#00A8E8"></stop>
    </linearGradient>
    <linearGradient id="input-logo_svg__paint9_linear_190_361" x1="24" y1="132" x2="48" y2="156"
      gradientUnits="userSpaceOnUse">
      <stop stop-color="#00D9C0"></stop>
      <stop offset="0.354" stop-color="#00CBCB"></stop>
      <stop offset="0.698" stop-color="#00BCD8"></stop>
      <stop offset="1" stop-color="#00A8E8"></stop>
    </linearGradient>
    <linearGradient id="input-logo_svg__paint10_linear_190_361" x1="60" y1="96" x2="84" y2="120"
      gradientUnits="userSpaceOnUse">
      <stop stop-color="#00D9C0"></stop>
      <stop offset="0.354" stop-color="#00CBCB"></stop>
      <stop offset="0.698" stop-color="#00BCD8"></stop>
      <stop offset="1" stop-color="#00A8E8"></stop>
    </linearGradient>
    <linearGradient id="input-logo_svg__paint11_linear_190_361" x1="60" y1="132" x2="84" y2="156"
      gradientUnits="userSpaceOnUse">
      <stop stop-color="#00D9C0"></stop>
      <stop offset="0.354" stop-color="#00CBCB"></stop>
      <stop offset="0.698" stop-color="#00BCD8"></stop>
      <stop offset="1" stop-color="#00A8E8"></stop>
    </linearGradient>
    <linearGradient id="input-logo_svg__paint12_linear_190_361" x1="96" y1="96" x2="120" y2="120"
      gradientUnits="userSpaceOnUse">
      <stop stop-color="#00D9C0"></stop>
      <stop offset="0.354" stop-color="#00CBCB"></stop>
      <stop offset="0.698" stop-color="#00BCD8"></stop>
      <stop offset="1" stop-color="#00A8E8"></stop>
    </linearGradient>
    <linearGradient id="input-logo_svg__paint13_linear_190_361" x1="96" y1="132" x2="120" y2="156"
      gradientUnits="userSpaceOnUse">
      <stop stop-color="#00D9C0"></stop>
      <stop offset="0.354" stop-color="#00CBCB"></stop>
      <stop offset="0.698" stop-color="#00BCD8"></stop>
      <stop offset="1" stop-color="#00A8E8"></stop>
    </linearGradient>
    <linearGradient id="input-logo_svg__paint14_linear_190_361" x1="132" y1="96" x2="156" y2="120"
      gradientUnits="userSpaceOnUse">
      <stop stop-color="#00D9C0"></stop>
      <stop offset="0.354" stop-color="#00CBCB"></stop>
      <stop offset="0.698" stop-color="#00BCD8"></stop>
      <stop offset="1" stop-color="#00A8E8"></stop>
    </linearGradient>
    <linearGradient id="input-logo_svg__paint15_linear_190_361" x1="132" y1="132" x2="156" y2="156"
      gradientUnits="userSpaceOnUse">
      <stop stop-color="#00D9C0"></stop>
      <stop offset="0.354" stop-color="#00CBCB"></stop>
      <stop offset="0.698" stop-color="#00BCD8"></stop>
      <stop offset="1" stop-color="#00A8E8"></stop>
    </linearGradient>
  </defs>
</svg>