<svg width="412" height="394" className="shadow-lg shadow-cyan-500/50" viewBox="0 0 412 394" fill="none" xmlns="http://www.w3.org/2000/svg">
<path opacity="0.88" d="M364.76 90.0538C364.67 88.7023 363.995 87.396 363.005 86.4951C362.645 86.2248 362.24 85.9995 361.88 85.7293C361.025 85.3238 360.125 85.1437 359.135 85.1887L357.785 85.459C357.425 85.5941 357.11 85.7293 356.795 85.9095C356.3 84.6481 355.49 83.522 354.455 82.621C353.825 82.2156 353.195 81.7652 352.565 81.3597C351.125 80.639 349.595 80.3687 348.02 80.4588L345.815 80.9093C345.365 80.2786 344.87 79.7381 344.285 79.2425C343.475 78.702 342.71 78.1614 341.9 77.6659C340.1 76.765 338.165 76.4046 336.185 76.5397C335.24 76.7199 334.34 76.9452 333.395 77.1253C331.595 77.756 330.065 78.7921 328.76 80.2336C327.59 81.585 326.78 83.1616 326.33 84.8734C326.15 84.8734 326.015 84.8734 325.835 84.8734C325.385 84.9635 324.935 85.0536 324.485 85.1437C323.63 85.459 322.865 85.9545 322.28 86.6302C321.335 87.7113 320.885 89.1078 320.975 90.5493C321.065 91.9007 321.74 93.207 322.775 94.108C323.135 94.3782 323.54 94.6035 323.9 94.8737C324.755 95.2792 325.7 95.4594 326.645 95.4143C327.095 95.3242 327.545 95.2341 327.995 95.144C328.265 95.0539 328.535 94.9188 328.805 94.7837C329.12 95.099 329.39 95.4143 329.75 95.7296C330.515 96.2702 331.325 96.8108 332.135 97.3063C333.935 98.2072 335.87 98.5676 337.85 98.4324C338.795 98.2522 339.695 98.027 340.64 97.8468C341.765 97.4414 342.8 96.9008 343.7 96.1801C344.06 96.4053 344.42 96.6756 344.825 96.9008C346.265 97.6216 347.795 97.8919 349.37 97.8018C350.09 97.6666 350.855 97.4865 351.575 97.3513C353.015 96.8558 354.23 95.9999 355.22 94.8737C355.445 94.6485 355.625 94.3782 355.805 94.108C355.85 94.153 355.94 94.2431 355.985 94.2881C356.345 94.5584 356.75 94.7837 357.11 95.0539C357.965 95.4594 358.865 95.6395 359.855 95.5945L361.205 95.3242C362.06 95.0089 362.78 94.5134 363.41 93.8377C364.4 92.8917 364.85 91.4952 364.76 90.0538Z" fill="#FFFFFC"/>
<path d="M333.08 79.8281C334.52 78.0713 337.085 77.3055 339.245 78.0263C341.405 78.747 343.025 80.8642 343.115 83.1616C342.08 81.585 340.46 80.639 338.705 79.9633C336.95 79.3326 334.88 79.3326 333.08 79.8281Z" fill="#F2F2F2"/>
<path d="M334.475 90.2339C333.8 91.4952 332.27 92.3061 330.83 92.1259C329.39 91.9457 328.13 90.8195 327.77 89.4231C328.625 90.279 329.705 90.6844 330.92 90.8646C332.135 91.0448 333.395 90.8195 334.475 90.2339Z" fill="#00D1FF"/>
<path d="M347.12 89.288C346.85 90.7295 345.635 91.9457 344.195 92.216C342.755 92.4863 341.18 91.7655 340.415 90.5042C341.495 91.0898 342.665 91.1349 343.88 90.9547C345.095 90.7745 346.22 90.1439 347.12 89.288Z" fill="#00D1FF"/>
<path d="M361.475 91.9007C359.18 91.9007 357.065 90.8195 355.625 89.1979C354.32 91.6754 351.71 93.3872 348.785 93.3872C346.85 93.3872 345.05 92.6214 343.7 91.4051C342.305 93.4322 339.965 94.7836 337.4 94.7836C334.745 94.7836 332.36 93.3421 330.965 91.225C329.93 91.7205 328.85 91.9908 327.68 91.9908C325.16 91.9908 322.73 90.6844 321.335 88.5672C321.11 89.2429 321.02 89.9636 321.065 90.6844C321.155 92.0358 321.83 93.3422 322.865 94.2431C323.225 94.5134 323.63 94.7386 323.99 95.0089C324.845 95.4143 325.79 95.5945 326.735 95.5494C327.185 95.4593 327.635 95.3693 328.085 95.2792C328.355 95.1891 328.625 95.0539 328.895 94.9188C329.21 95.2341 329.48 95.5494 329.84 95.8648C330.605 96.4053 331.415 96.9459 332.225 97.4414C334.025 98.3423 335.96 98.7027 337.94 98.5676C338.885 98.3874 339.785 98.1621 340.73 97.982C341.855 97.5765 342.89 97.036 343.79 96.3152C344.15 96.5405 344.51 96.8107 344.915 97.036C346.355 97.7567 347.885 98.027 349.46 97.9369C350.18 97.8018 350.945 97.6216 351.665 97.4865C353.105 96.9909 354.32 96.135 355.31 95.0089C355.535 94.7836 355.715 94.5134 355.895 94.2431C355.94 94.2881 356.03 94.3782 356.075 94.4233C356.435 94.6936 356.84 94.9188 357.2 95.1891C358.055 95.5945 358.955 95.7747 359.945 95.7296L361.295 95.4593C362.15 95.144 362.87 94.6485 363.5 93.9728C364.175 93.207 364.625 92.216 364.76 91.1799C363.725 91.6304 362.645 91.9007 361.475 91.9007Z" fill="#00D1FF"/>
<path d="M338.158 58.6107C337.917 55.7129 336.59 52.9961 334.359 51.0642C333.575 50.5208 332.73 49.9775 331.946 49.4341C331.223 49.0719 330.499 48.8304 329.775 48.6493C329.775 48.5889 329.775 48.4682 329.775 48.4078C329.655 47.0796 329.353 45.8118 328.871 44.544C328.69 43.8195 328.569 43.0951 328.388 42.3102C327.604 40.1368 326.398 38.2653 324.649 36.756C321.995 34.4015 318.437 33.2544 314.939 33.4959C313.914 33.5563 312.949 33.7977 312.044 34.0996C311.32 31.1414 309.752 28.3642 307.34 26.3116C304.928 24.2589 303.118 23.4137 300.043 22.6893C298.655 22.327 297.087 22.327 295.64 22.4478C293.107 22.6289 290.815 23.4741 288.704 24.8627C287.8 25.6475 286.835 26.4927 285.93 27.2775C285.025 28.3039 284.302 29.4509 283.699 30.6584C283.638 30.7791 283.578 30.8395 283.518 30.9602C282.613 32.8318 282.07 34.8241 281.95 36.8767C280.442 36.3334 278.753 36.0919 277.185 36.2126C275.316 36.3937 273.567 36.9975 271.999 38.0238C270.792 38.8086 269.827 39.835 269.043 41.0424C266.571 39.9557 263.736 39.352 260.841 39.352C251.735 39.352 244.799 48.77 245.462 57.3429C246.186 66.9421 254.328 72.7378 263.435 72.7378C266.812 72.7378 269.888 71.47 272.36 69.357C273.868 71.5304 275.858 73.2812 278.271 74.4886C278.331 74.4886 278.391 74.549 278.452 74.549C279.718 75.1527 281.045 75.5753 282.432 75.8772C283.457 76.1187 284.422 76.179 285.387 76.1187C285.749 76.1187 286.171 76.1187 286.594 76.0583C287.679 75.9979 288.704 75.7564 289.669 75.5149C291.599 75.0923 293.348 74.3679 295.037 73.2812C296.424 72.3152 297.63 71.1681 298.595 69.9003C298.836 70.2022 299.138 70.4437 299.439 70.6852C300.465 71.3493 301.43 72.0133 302.455 72.6774C304.747 73.8245 307.159 74.2471 309.692 74.066C310.838 73.8245 312.044 73.583 313.19 73.3415C315.482 72.5567 317.412 71.2285 319.04 69.4173C319.342 69.0551 319.643 68.6929 319.884 68.3306C321.272 69.357 322.719 69.9607 324.528 70.3833C325.553 70.6248 326.699 70.5644 327.785 70.5644C328.75 70.3833 329.655 70.1418 330.62 69.9607C332.489 69.2966 334.057 68.2703 335.324 66.761C337.374 64.6479 338.399 61.6293 338.158 58.6107Z" fill="url(#paint0_linear_455_240)"/>
<path d="M288.584 29.2095C291.177 25.6475 296.062 24.0175 300.284 25.1645C304.506 26.372 307.823 30.2962 308.185 34.7033C306.013 31.7451 302.877 30.0547 299.44 28.968C296.002 27.8209 292.082 28.002 288.584 29.2095Z" fill="#F2F2F2"/>
<path d="M280.804 59.4559C279.356 62.2331 276.1 63.9235 272.964 63.5612C269.828 63.199 267.114 60.7237 266.33 57.7051C268.139 59.5767 270.551 60.4219 273.145 60.8445C275.738 61.2067 278.452 60.6634 280.804 59.4559Z" fill="#00D1FF"/>
<path d="M325.312 58.49C324.769 61.569 322.176 64.2253 319.1 64.7687C316.024 65.3724 312.647 63.8631 311.019 61.2067C313.31 62.4142 315.843 62.4746 318.437 62.1123C320.97 61.6897 323.442 60.3615 325.312 58.49Z" fill="#00D1FF"/>
<path d="M338.098 58.49C337.856 58.7918 337.615 59.0333 337.374 59.3352C335.444 61.2671 333.152 62.5953 330.559 63.3198C329.172 63.5009 327.845 63.682 326.458 63.8631C326.277 63.8631 326.096 63.8631 325.855 63.8631C323.623 63.8631 321.452 63.3801 319.462 62.4745C316.688 65.1309 312.888 66.8213 308.787 66.8213C304.927 66.8213 301.369 65.3724 298.655 62.9575C298.293 63.4405 297.931 63.8631 297.509 64.2857C294.614 67.1836 290.694 68.8136 286.593 68.8136C282.492 68.8136 278.572 67.1836 275.677 64.2857C274.592 63.199 273.747 62.0519 273.024 60.7237C270.189 64.3461 265.786 66.761 260.901 66.761C253.182 66.761 246.668 60.8445 245.643 53.3583C245.402 54.7469 245.281 56.1355 245.402 57.524C246.126 67.1232 254.267 72.9189 263.374 72.9189C266.751 72.9189 269.827 71.6511 272.3 69.5381C273.808 71.7115 275.798 73.4623 278.21 74.6697C278.271 74.6697 278.331 74.7301 278.391 74.7301C279.658 75.3338 280.984 75.7564 282.372 76.0583C283.397 76.2998 284.362 76.3601 285.327 76.2998C285.689 76.2998 286.111 76.2998 286.533 76.2394C287.619 76.179 288.644 75.9375 289.609 75.6961C291.539 75.2734 293.288 74.549 294.976 73.4623C296.363 72.4963 297.57 71.3493 298.535 70.0814C298.776 70.3833 299.077 70.6248 299.379 70.8663C300.404 71.5304 301.369 72.1945 302.394 72.8586C304.686 74.0056 307.099 74.4282 309.632 74.2471C310.777 74.0056 311.984 73.7641 313.129 73.5226C315.421 72.7378 317.351 71.4096 318.98 69.5985C319.281 69.2362 319.583 68.874 319.824 68.5118C321.211 69.5381 322.658 70.1418 324.468 70.5644C325.493 70.8059 326.639 70.7455 327.724 70.7455C328.689 70.5644 329.594 70.3229 330.559 70.1418C332.429 69.4777 333.997 68.4514 335.263 66.9421C337.253 64.7083 338.218 61.6897 338.037 58.6711C338.158 58.5503 338.158 58.49 338.098 58.49Z" fill="#00D1FF"/>
<path d="M318.393 113.505C318.168 110.307 315.423 108.37 312.408 108.37C312.003 108.37 311.643 108.415 311.283 108.505C311.508 107.784 311.598 107.018 311.553 106.298C311.283 102.739 308.268 100.577 304.848 100.577C302.913 100.577 301.248 101.703 300.213 103.279C299.718 102.333 299.043 101.478 298.188 100.712C297.468 99.8559 296.613 99.1802 295.533 98.7297C294.633 98.3694 293.733 97.9639 292.788 97.8288C291.933 97.7387 291.033 97.6937 290.178 97.6937C288.468 97.8288 286.983 98.3694 285.543 99.3153C283.473 100.667 282.033 102.919 281.583 105.352C281.583 105.442 281.538 105.532 281.538 105.622C279.018 105.937 276.723 107.514 275.553 109.856C274.923 111.118 274.653 112.469 274.788 113.91C274.833 114.136 274.878 114.316 274.923 114.541C274.968 114.856 275.013 115.127 275.103 115.397C275.148 115.577 275.148 115.712 275.193 115.893C275.598 116.974 276.183 117.92 276.993 118.73C277.083 118.821 277.128 118.866 277.218 118.956C277.308 119.001 277.353 119.091 277.443 119.181C277.443 119.181 277.488 119.181 277.488 119.226C277.533 119.226 277.533 119.271 277.578 119.271C278.028 119.676 278.568 120.037 279.108 120.307L279.153 120.352C279.513 120.532 279.918 120.667 280.278 120.803C280.323 120.803 280.368 120.848 280.458 120.848C280.683 120.893 280.908 120.893 281.133 120.938V120.848C281.358 120.848 281.583 121.028 281.808 121.028C281.853 121.028 281.898 121.073 281.943 121.073C282.168 121.073 282.393 121.118 282.573 121.118C282.573 121.118 282.573 121.118 282.618 121.118C282.798 121.118 282.978 121.118 283.158 121.118C283.203 121.118 283.248 121.118 283.248 121.118C283.383 121.118 283.563 121.073 283.698 121.073C283.788 121.073 283.878 121.073 283.923 121.028C284.238 120.983 284.598 120.893 284.913 120.758C286.758 124.136 290.763 126.298 294.678 124.632C294.768 124.587 294.813 124.587 294.903 124.542C295.083 124.451 295.263 124.361 295.443 124.271C297.108 123.596 298.548 122.334 299.448 120.487C299.583 120.262 299.673 119.992 299.763 119.722C299.808 119.722 299.808 119.767 299.853 119.767C301.158 120.397 302.553 120.667 303.993 120.577C304.668 120.442 305.343 120.307 306.018 120.172C307.233 119.722 308.268 119.046 309.168 118.145C310.248 119.046 311.733 119.586 313.263 119.586C316.278 119.496 318.618 116.343 318.393 113.505Z" fill="url(#paint1_linear_455_240)"/>
<path d="M284.643 106.072C284.553 103.685 286.038 101.342 288.243 100.442C290.403 99.4955 293.148 100.081 294.768 101.793C292.878 101.297 290.988 101.613 289.143 102.333C287.298 103.009 285.678 104.406 284.643 106.072Z" fill="#F2F2F2"/>
<path d="M290.358 117.199C289.548 118.73 287.748 119.676 285.993 119.451C284.283 119.226 282.753 117.875 282.348 116.208C283.383 117.244 284.688 117.694 286.128 117.92C287.523 118.19 289.053 117.875 290.358 117.199Z" fill="#00D1FF"/>
<path d="M318.393 113.505C318.303 112.379 317.943 111.433 317.313 110.667C316.008 112.919 313.578 114.496 310.833 114.496C309.483 114.496 308.178 114.091 307.053 113.46C305.973 115.622 303.858 117.244 300.708 117.244C299.943 117.244 299.223 117.154 298.593 116.974C297.783 119.676 295.533 121.884 291.888 121.884C288.738 121.884 286.668 120.262 285.633 118.1C285.588 118.1 285.588 118.145 285.543 118.145C284.373 118.821 283.158 119.136 281.808 119.181C281.133 119.091 280.503 119.001 279.828 118.911C279.198 118.685 278.523 118.505 277.938 118.1C276.813 117.424 275.958 116.568 275.283 115.442C275.193 115.352 275.148 115.217 275.058 115.127C275.058 115.217 275.103 115.307 275.103 115.397C275.148 115.577 275.148 115.712 275.193 115.893C275.598 116.974 276.183 117.92 276.993 118.73C277.083 118.821 277.128 118.866 277.218 118.956C277.308 119.001 277.353 119.091 277.443 119.181C277.443 119.181 277.488 119.181 277.488 119.226C277.533 119.226 277.533 119.271 277.578 119.271C278.028 119.676 278.568 120.037 279.108 120.307L279.153 120.352C279.513 120.532 279.918 120.667 280.278 120.803C280.323 120.803 280.368 120.848 280.458 120.848C280.683 120.893 280.908 120.983 281.133 121.028C281.358 121.028 281.583 121.073 281.808 121.118C281.853 121.118 281.898 121.118 281.943 121.118C282.168 121.118 282.393 121.163 282.573 121.163C282.573 121.163 282.573 121.163 282.618 121.163C282.798 121.163 282.978 121.163 283.158 121.163C283.203 121.163 283.248 121.163 283.248 121.163C283.383 121.163 283.563 121.118 283.698 121.118C283.788 121.118 283.878 121.118 283.923 121.073C284.238 121.028 284.598 120.938 284.913 120.803C286.758 124.181 290.763 126.343 294.678 124.677C294.768 124.632 294.813 124.632 294.903 124.587C295.083 124.496 295.263 124.406 295.443 124.316C297.108 123.641 298.548 122.379 299.448 120.532C299.583 120.307 299.673 120.037 299.763 119.767C299.808 119.767 299.808 119.812 299.853 119.812C301.158 120.442 302.553 120.713 303.993 120.622C304.668 120.487 305.343 120.352 306.018 120.217C307.233 119.767 308.268 119.091 309.168 118.19C310.248 119.091 311.733 119.631 313.263 119.631C316.278 119.496 318.618 116.343 318.393 113.505Z" fill="#00D1FF"/>
<path d="M315.838 167.748C315.838 167.658 315.793 167.613 315.793 167.523C315.793 167.478 315.748 167.433 315.748 167.343C315.388 163.784 313.183 160.541 309.988 158.919C309.808 158.829 309.628 158.739 309.403 158.649C309.358 158.649 309.358 158.649 309.313 158.604C308.458 158.243 307.513 157.973 306.523 157.883C306.253 157.838 305.983 157.838 305.713 157.793C306.298 156.441 306.523 155 306.298 153.468C306.298 153.378 306.253 153.288 306.253 153.198C306.253 153.108 306.208 152.973 306.208 152.883C305.893 150.63 304.768 148.513 303.103 146.982C303.058 146.936 303.058 146.936 303.013 146.891C302.923 146.846 302.878 146.756 302.788 146.711C299.683 143.873 295.093 143.017 290.953 145.81C289.018 147.117 287.758 148.964 287.173 151.036C286.003 148.243 283.888 145.945 281.143 144.549C279.073 143.513 276.868 143.107 274.528 143.243C272.323 143.423 270.253 144.144 268.408 145.36C268.273 145.45 268.093 145.54 267.958 145.63C266.158 146.846 264.763 148.423 263.818 150.36C263.458 151.081 263.188 151.802 262.963 152.567C261.658 152.657 260.353 152.928 259.048 153.378C255.403 154.639 252.343 157.342 250.633 160.811C249.418 163.243 248.923 165.856 249.148 168.559C249.463 172.433 251.263 175.992 254.143 178.604C255.133 179.505 256.258 180.361 257.518 180.857C260.308 182.028 262.288 182.613 265.348 182.388C267.013 182.253 268.903 181.758 270.568 180.992C270.703 181.127 270.883 181.307 271.018 181.442C271.738 182.163 272.638 182.794 273.583 183.154C276.103 184.19 277.093 184.415 279.793 184.37C280.513 184.37 281.188 184.19 281.908 184.01C283.483 183.74 284.923 183.154 286.273 182.253C287.218 181.622 288.028 180.857 288.748 180.001C288.793 180.046 288.838 180.091 288.883 180.136C291.448 182.388 295.093 183.109 298.333 181.983C300.043 181.397 301.528 180.316 302.653 178.875C304.633 179.37 306.748 179.28 308.728 178.604C312.868 177.253 316.693 172.433 315.838 167.748Z" fill="#FFFFFC"/>
<path d="M295.229 147.477C297.164 146.711 299.549 147.252 300.944 148.783C302.339 150.315 302.699 152.747 301.754 154.594C301.619 152.883 300.764 151.396 299.639 150.09C298.559 148.783 296.939 147.882 295.229 147.477Z" fill="#F2F2F2"/>
<path d="M268.858 149.144C269.623 146.891 271.918 145.225 274.303 145.135C276.688 145.044 279.073 146.576 279.973 148.783C278.353 147.612 276.463 147.252 274.483 147.252C272.458 147.207 270.433 147.973 268.858 149.144Z" fill="#F2F2F2"/>
<path d="M291.403 174.685C290.548 176.442 288.568 177.613 286.633 177.433C284.698 177.298 282.898 175.811 282.358 173.964C283.528 175.046 285.058 175.541 286.678 175.721C288.298 175.901 290.008 175.496 291.403 174.685Z" fill="#00D1FF"/>
<path d="M280.198 160.315C279.118 162.568 276.553 164.054 274.078 163.874C271.558 163.694 269.308 161.802 268.588 159.414C270.118 160.811 272.053 161.442 274.123 161.667C276.193 161.892 278.398 161.351 280.198 160.315Z" fill="#00D1FF"/>
<path d="M315.838 167.748C315.838 167.658 315.793 167.613 315.793 167.523C315.793 167.478 315.748 167.433 315.748 167.343C315.523 165.135 314.623 163.108 313.183 161.441C313.183 161.532 313.228 161.667 313.228 161.757C313.228 161.847 313.228 161.892 313.228 161.982C313.228 163.919 312.733 165.766 311.743 167.433C311.158 168.153 310.618 168.874 310.033 169.64C308.458 171.217 306.388 172.298 304.183 172.658C304.003 173.064 303.823 173.424 303.598 173.784C303.058 174.505 302.473 175.226 301.933 175.947C299.953 177.929 297.208 179.1 294.373 179.1C291.808 179.1 289.288 178.154 287.353 176.442C284.878 178.244 281.818 179.28 278.623 179.28C274.978 179.28 271.603 177.929 268.993 175.766C267.868 176.442 266.608 176.983 265.303 177.343C263.953 177.523 262.603 177.703 261.253 177.884C261.163 177.884 261.118 177.884 261.028 177.884C258.283 177.884 255.763 177.163 253.378 175.811C252.343 175.001 251.353 174.235 250.318 173.424L250.273 173.379C251.128 175.361 252.433 177.208 254.098 178.694C255.088 179.595 256.213 180.451 257.473 180.947C260.263 182.118 262.243 182.704 265.303 182.478C266.968 182.343 268.858 181.848 270.523 181.082C270.658 181.217 270.838 181.397 270.973 181.532C271.693 182.253 272.593 182.884 273.538 183.244C276.058 184.28 277.048 184.505 279.748 184.46C280.468 184.46 281.143 184.28 281.863 184.1C283.438 183.83 284.878 183.244 286.228 182.343C287.173 181.713 287.983 180.947 288.703 180.091C288.748 180.136 288.793 180.181 288.838 180.226C291.403 182.478 295.048 183.199 298.288 182.073C299.998 181.487 301.483 180.406 302.608 178.965C304.588 179.46 306.703 179.37 308.683 178.694C312.868 177.253 316.693 172.433 315.838 167.748Z" fill="#00D1FF"/>
<path opacity="0.79" d="M370.446 146.651C370.311 144.759 369.681 143.047 368.646 141.47C368.061 140.704 367.386 140.029 366.756 139.308C365.991 138.812 365.226 138.272 364.461 137.776C363.786 137.416 363.066 137.191 362.346 137.011C361.941 133.091 359.061 130.434 355.416 129.443C355.326 129.443 355.236 129.398 355.191 129.398C352.491 128.677 348.891 129.893 346.911 132.146C345.471 131.154 343.716 130.614 341.826 130.614C338.046 130.614 335.076 134.173 334.806 137.776C334.086 137.686 333.366 137.641 332.601 137.686C331.746 137.866 330.891 138.047 330.081 138.227C328.416 138.812 327.021 139.758 325.851 141.065C324.096 143.092 323.196 145.795 323.376 148.452C323.556 151.065 324.816 153.498 326.751 155.209C327.471 155.705 328.191 156.155 328.911 156.651C330.576 157.462 332.286 157.777 334.131 157.687C334.986 157.507 335.841 157.327 336.651 157.146C337.866 156.696 338.946 156.065 339.891 155.254C340.341 155.57 340.791 155.84 341.241 156.155C342.816 156.921 344.436 157.237 346.191 157.101C347.001 156.921 347.811 156.786 348.576 156.606C349.791 156.2 350.826 155.57 351.726 154.714C353.931 157.191 357.216 158.543 360.546 158.273C364.281 158.002 367.701 155.705 369.366 152.326C370.221 150.48 370.581 148.588 370.446 146.651Z" fill="#FFFFFC"/>
<path d="M360.726 139.713C362.526 138.993 364.776 139.488 366.126 140.93C367.431 142.371 367.791 144.623 366.891 146.38C366.756 144.759 365.991 143.407 364.911 142.146C363.831 140.93 362.301 140.074 360.726 139.713Z" fill="#F2F2F2"/>
<path d="M336.561 136.155C336.651 134.218 338.001 132.371 339.846 131.74C341.691 131.109 343.896 131.74 345.156 133.272C343.626 132.731 342.051 132.911 340.476 133.362C338.901 133.767 337.506 134.848 336.561 136.155Z" fill="#F2F2F2"/>
<path d="M357.846 147.732C357.036 149.398 355.191 150.479 353.346 150.344C351.501 150.209 349.836 148.858 349.341 147.056C350.466 148.092 351.861 148.542 353.391 148.723C354.921 148.903 356.541 148.497 357.846 147.732Z" fill="#00D1FF"/>
<path d="M343.356 149.398C342.546 151.065 340.701 152.146 338.856 152.011C337.011 151.876 335.346 150.525 334.851 148.723C335.976 149.759 337.371 150.209 338.901 150.389C340.431 150.525 342.051 150.164 343.356 149.398Z" fill="#00D1FF"/>
<path d="M362.346 155.48C358.296 155.48 354.831 152.597 353.886 148.813C352.446 151.741 349.431 153.813 346.011 153.813C343.086 153.813 340.476 152.326 338.856 150.074C337.281 152.281 334.671 153.768 331.791 153.768C327.741 153.768 324.231 150.84 323.331 147.011C323.286 147.461 323.286 147.957 323.331 148.407C323.511 151.02 324.771 153.453 326.706 155.164C327.426 155.66 328.146 156.11 328.866 156.606C330.531 157.417 332.241 157.732 334.086 157.642C334.941 157.462 335.796 157.282 336.606 157.101C337.821 156.651 338.901 156.02 339.846 155.209C340.296 155.525 340.746 155.795 341.196 156.11C342.771 156.876 344.391 157.191 346.146 157.056C346.956 156.876 347.766 156.741 348.531 156.561C349.746 156.155 350.781 155.525 351.681 154.669C353.886 157.146 357.171 158.498 360.501 158.228C364.236 157.957 367.656 155.66 369.321 152.281C369.456 151.966 369.591 151.651 369.726 151.335C368.196 153.768 365.451 155.48 362.346 155.48Z" fill="#00D1FF"/>
<g clip-path="url(#clip0_455_240)">
<g filter="url(#filter0_d_455_240)">
<path d="M141.721 68.1474C174.669 43.6221 220.971 48.6212 250.098 85.0245C266.023 104.935 272.492 132.323 289.023 151.807C307.634 173.725 329.877 195.046 338.312 224.955C347.277 256.744 339.409 293.19 319.36 317.501C294.962 347.068 259.101 338.181 225.207 337.711C86.4173 335.746 -16.7389 231.108 114.523 102.115C125.493 91.2626 130.827 76.2227 141.721 68.1474Z" fill="url(#paint2_linear_455_240)" shape-rendering="crispEdges"/>
</g>
<path d="M313.384 162.531C312.665 162.787 308.883 165.949 308.883 165.949L304.419 169.196L304.23 167.359C304.23 167.359 302.414 163.257 300.182 163.428C300.182 163.428 302.868 167.145 303.208 169.624C303.549 172.102 303.7 173.811 303.7 173.811L300.75 177.101L305.667 184.236L317.205 174.495C317.205 174.495 314.103 162.275 313.384 162.531Z" fill="#DBA17B"/>
<path d="M315.691 162.531L313.687 180.69L305.667 180.904L303.738 162.531H315.691Z" fill="#00DCDE"/>
<path d="M317.431 162.787H302.3V160.993H303.738V158.173L316.032 160.224L316.07 161.249H317.431V163.001" fill="#0E538C"/>
<path d="M316.41 174.836C319.209 175.135 315.691 166.462 315.691 166.462C315.691 166.462 308.125 165.864 308.05 166.334C307.974 166.804 308.012 167.573 308.617 167.744C309.222 167.915 313.951 168.641 313.951 168.641C313.951 168.641 309.033 168.897 309.109 169.496C309.26 170.393 309.828 170.478 311.303 170.735C312.551 170.948 315.275 171.034 315.275 171.034C315.275 171.034 310.092 171.162 310.206 171.546C310.319 171.931 309.979 173.127 311.757 172.828C315.804 172.23 316.41 174.836 316.41 174.836Z" fill="#DBA17B"/>
<path d="M282.365 209.744C282.365 209.744 290.044 271.057 286.488 284.089C282.932 297.121 281.533 308.871 281.533 308.871L263.678 302.974C263.678 302.974 269.579 272.296 270.487 266.4C271.357 260.504 262.241 212.607 262.241 212.607L282.365 209.744Z" fill="#0B4870"/>
<path d="M273.929 214.145L265.494 312.716H248.434C248.434 312.716 253.956 208.377 252.973 207.48C251.989 206.668 273.929 214.145 273.929 214.145Z" fill="#0B4870"/>
<path d="M280.663 154.071C280.663 154.071 282.479 187.142 286.375 185.945C290.309 184.792 300.825 176.161 300.825 176.161L307.218 184.108C307.218 184.108 287.737 208.591 279.717 198.593C271.736 188.552 280.663 154.071 280.663 154.071Z" fill="#0B4870"/>
<path d="M275.405 329.209L276.577 322.543L264.132 316.903L262.165 326.816L262.846 326.944C265.645 328.397 279.225 335.489 281.344 335.703C283.689 335.959 275.405 329.209 275.405 329.209Z" fill="#0B4870"/>
<path d="M245.823 232.176L247.185 234.398C247.185 234.398 247.828 235.893 249.417 238.158C249.833 238.756 250.325 239.268 250.892 239.653C251.573 240.123 252.519 240.721 253.124 240.892C253.88 241.063 254.032 242.174 253.389 242.516C252.746 242.815 250.703 242.388 248.736 240.678C246.769 239.012 247.677 243.242 248.017 244.823C248.32 246.361 249.076 251.232 248.736 251.745C248.244 252.471 247.45 251.958 247.185 250.42C246.92 248.839 245.785 244.225 245.067 244.481C244.348 244.695 246.012 252.599 246.012 252.599C246.012 252.599 246.617 254.223 245.785 254.522C244.31 255.035 243.062 246.489 242.986 245.677C242.91 245.122 242.116 245.336 242.229 245.934C242.343 246.575 244.045 253.753 242.57 254.308C241.397 254.736 241.511 247.301 240.414 246.019C239.317 244.737 240.868 251.659 239.733 252.001C239.317 252.129 238.976 252.172 238.598 248.027C238.22 243.797 238.825 232.219 238.825 232.219L245.937 232.304" fill="#FFE3CA"/>
<path d="M270.525 142.962C270.373 141.638 270.978 136.126 270.978 136.126C270.978 136.126 275.442 135.741 275.858 130.785C276.274 125.786 276.312 114.25 276.312 114.25L268.331 109.464L259.176 116.771L257.096 122.24L259.819 135.271V141.808L270.525 142.962Z" fill="#DBA17B"/>
<path d="M270.979 136.126C270.979 136.126 267.99 136.04 265.191 133.69C265.191 133.69 266.401 137.408 270.865 137.365L270.979 136.126Z" fill="#C68C6B"/>
<path d="M257.248 127.709C258.458 130.742 259.177 135.186 259.177 135.186C259.82 136.553 260.047 132.195 260.047 132.195C260.047 132.195 260.614 128.008 260.085 126.384C260.085 126.384 257.815 127.196 257.323 122.624C257.059 120.36 260.085 119.291 260.917 122.026L262.808 122.24C262.808 122.24 262.96 113.694 267.31 115.275C267.31 115.275 270.45 117.454 272.341 116.13C274.232 114.805 274.081 114.335 274.081 114.335C274.081 114.335 274.989 116.6 277.41 115.104C279.831 113.609 280.133 111.002 279.301 109.763C278.809 109.037 278.356 108.225 277.561 108.054C276.767 107.883 275.897 108.268 275.405 108.952C276.01 107.969 275.594 106.516 274.686 105.832C273.816 105.192 272.644 105.234 271.66 105.662C270.677 106.089 269.844 106.858 269.05 107.627C268.483 105.832 266.78 104.551 265.116 104.722C263.414 104.892 261.938 106.431 261.636 108.311C260.728 107.029 258.988 106.73 257.664 107.456C256.34 108.182 255.508 109.721 255.243 111.344C254.978 112.968 255.281 114.634 255.848 116.172C254.827 115.531 253.427 116.001 252.746 117.07C252.065 118.138 252.065 119.633 252.557 120.83C253.049 122.026 253.994 122.923 255.016 123.521C254.259 124.205 253.995 125.572 254.486 126.555C254.978 127.538 256.113 128.05 257.021 127.666" fill="#0E538C"/>
<path d="M241.965 156.079C241.965 156.079 245.029 140.142 259.82 141.808C273.362 143.347 273.362 143.347 273.362 143.347C273.362 143.347 282.667 147.79 281.344 160.309C280.057 172.828 279.414 184.279 279.755 186.458C280.095 188.68 283.348 208.377 282.365 209.744C272.605 223.16 247.677 201.754 247.677 201.754L241.965 156.079Z" fill="#00DCDE"/>
<path d="M259.82 141.808L256.377 234.91L246.126 228.629L247.185 146.038C247.185 146.038 249.947 140.698 259.82 141.808Z" fill="#0E538C"/>
<path d="M238.447 233.842L241.965 156.037C243.062 151.251 245.407 147.577 248.433 144.5V234.868L238.447 233.842Z" fill="#0E538C"/>
<path d="M270.525 142.962C270.525 142.962 279.755 148.132 279.339 165.607C278.885 183.083 284.899 232.475 284.899 232.475L292.616 230.723C292.616 230.723 283.689 183.894 283.311 175.691C282.932 167.316 283.575 155.481 278.582 147.32C274.989 141.467 270.525 142.962 270.525 142.962Z" fill="#0E538C"/>
<path d="M259.82 141.808C259.82 141.808 256.793 149.499 257.096 152.277C257.399 155.097 258.458 160.993 258.458 160.993C258.458 160.993 256.226 162.531 256.415 163.856C256.566 165.18 258.344 186.116 258.344 186.116L259.82 141.808Z" fill="#0B4870"/>
<path d="M248.434 234.91C249.379 216.11 249.152 179.622 250.098 160.779L248.434 234.91Z" fill="#0B4870"/>
<path d="M275.48 322.073C275.329 321.988 278.62 307.931 278.62 307.931L267.687 304.341L265.38 317.501L275.48 322.073Z" fill="#DBA17B"/>
<path d="M262.732 312.759H250.287V323.782H262.732V312.759Z" fill="#DBA17B"/>
<path d="M263.943 329.764L262.808 323.099H249.379L250.779 332.926L251.498 332.968C254.562 333.139 269.504 334.037 271.546 333.353C273.892 332.541 263.943 329.764 263.943 329.764Z" fill="#0B4870"/>
<path d="M158.782 113.481C159.841 117.497 160.9 121.513 161.959 125.53C162.111 126.085 162.262 126.64 162.224 127.196C162.186 128.905 160.787 130.229 159.311 130.529C157.836 130.828 156.323 130.4 154.886 129.93C154.507 131.639 152.692 132.366 151.141 132.708C144.256 134.16 136.955 133.135 130.6 129.802C133.324 125.359 135.556 120.573 137.22 115.489C142.629 115.745 148.039 116.044 153.448 116.301C154.394 116.343 155.377 116.386 156.285 116.044C157.193 115.66 157.987 114.805 158.063 113.737" fill="#0E538C"/>
<path d="M95.9876 166.334L94.3988 164.24C94.3988 164.24 93.264 163.172 91.6374 160.779C91.2213 160.181 90.9186 159.455 90.6917 158.728C90.4269 157.831 90.1243 156.635 90.1621 155.908C90.1999 155.011 89.2542 154.584 88.8003 155.225C88.3464 155.866 88.2707 158.301 89.2542 160.907C90.2377 163.514 86.7198 161.463 85.4336 160.694C84.1475 159.967 80.0621 157.917 79.5325 158.173C78.7759 158.557 79.0029 159.54 80.3269 160.266C81.6508 160.993 85.3958 163.386 85.0553 164.112C84.6771 164.838 78.1707 161.036 78.1707 161.036C78.1707 161.036 76.8846 159.967 76.4306 160.822C75.5984 162.36 82.8235 165.864 83.5044 166.163C83.9962 166.376 83.6179 167.231 83.0883 166.932C82.5587 166.676 76.6576 162.958 75.7875 164.496C75.1445 165.693 81.6887 167.445 82.5209 168.983C83.3531 170.521 77.6789 167.103 77.0737 168.256C76.8467 168.684 76.7332 169.068 80.289 170.478C83.8827 171.931 94.2475 174.153 94.2475 174.153L95.9119 166.12" fill="#FF957E"/>
<path d="M125.229 147.363C125.229 147.363 119.328 166.633 117.512 166.804C105.066 168.086 91.5241 162.018 91.5241 162.018L88.1196 172.871C88.1196 172.871 123.375 190.688 130.941 173.512C138.998 155.31 138.582 152.447 138.582 152.447L125.229 147.363Z" fill="#FCD2B1"/>
<path d="M126.023 256.317C132.34 289.088 173.875 319.552 173.875 319.552L180.949 309.768C180.949 309.768 147.547 276.142 146.147 261.187C144.71 246.233 155.793 222.776 155.793 222.776L144.294 217.264L126.023 256.317Z" fill="#0B4870"/>
<path d="M140.057 136.98C140.246 135.613 139.792 129.973 139.792 129.973C139.792 129.973 135.215 129.418 134.95 124.29C134.685 119.163 134.95 107.371 134.95 107.371L143.272 102.756L152.427 110.575L151.027 136.169L140.057 136.98Z" fill="#FFE3CA"/>
<path d="M151.784 114.591C151.784 114.591 144.294 113.78 143.008 106.132L134.912 114.591C134.912 114.591 132.454 108.909 136.955 103.653C141.457 98.398 144.521 99.4661 146.299 99.4661C147.925 99.4661 156.247 101.474 158.706 112.113C158.895 112.882 159.046 114.805 159.16 115.66L151.784 114.591Z" fill="#0E538C"/>
<path d="M139.83 130.016C139.83 130.016 142.894 130.059 145.844 127.709C145.844 127.709 144.482 131.469 139.943 131.255L139.83 130.016Z" fill="#FCD2B1"/>
<path d="M130.411 194.704C130.411 196.542 130.979 199.062 130.979 199.062L163.132 209.531C163.132 209.531 165.44 193.123 159.576 183.98C156.891 179.793 157.496 173.896 158.593 168.855L162.376 151.636L157.307 135.442L137.069 136.98C137.069 136.98 125.342 135.656 121.257 153.174L128.785 165.949L128.86 170.777L130.411 194.704Z" fill="#00DCDE"/>
<path d="M161.77 188.295C162.11 188.295 167.936 203.036 162.678 211.795C162.186 212.607 160.975 214.615 159.349 217.478C151.556 230.979 133.777 262.725 133.172 267.383C132.453 273.023 118.079 332.199 118.079 332.199L107.374 330.277L116.112 263.153L130.411 194.704L161.77 188.295Z" fill="#0E538C"/>
<path d="M143.197 105.533C143.197 105.533 141.532 109.165 142.251 111.9L134.988 114.036C134.988 113.993 133.324 103.611 143.197 105.533Z" fill="#0E538C"/>
<path d="M158.782 114.891C158.782 114.891 159.614 126.683 151.557 128.777L152.086 114.549L158.782 114.891Z" fill="#0E538C"/>
<path d="M125.796 169.837L107.752 178.425L78.2085 179.152L63.834 151.593L94.2097 149.286L107.374 175.947L125.682 167.915L125.796 169.837Z" fill="#00DCDE"/>
<path d="M122.543 149.585L117.474 163.556L128.822 169.923L129.882 157.703L122.543 149.585Z" fill="#00DCDE"/>
<path d="M144.407 134.417L140.284 136.425L141.116 145.825L146.337 135.271L144.407 134.417Z" fill="#FFE3CA"/>
<path d="M106.39 330.277C106.39 330.277 96.9712 333.097 99.3165 333.908C101.662 334.72 117.966 332.712 117.966 332.712L118.495 330.618L106.39 330.277Z" fill="#0E538C"/>
<path d="M117.965 332.712L121.294 322.586H106.844L106.39 330.277L117.965 332.712Z" fill="#0E538C"/>
<path d="M173.989 320.236C173.989 320.236 171.606 330.918 173.384 328.995C175.124 327.072 181.554 310.024 181.554 310.024L180.193 308.486L173.989 320.236Z" fill="#0B4870"/>
<path d="M181.516 310.024L175.274 301.821L168.276 316.049L173.988 320.236L181.516 310.024Z" fill="#0B4870"/>
<path d="M152.956 121.043C152.919 120.189 152.919 119.291 153.183 118.522C153.448 117.711 154.053 117.027 154.81 116.941C155.68 116.856 156.512 117.668 156.663 118.608C156.815 119.591 156.285 120.573 155.529 121.086C154.772 121.556 153.826 121.556 152.994 121.171" fill="#FFE3CA"/>
<path d="M147.812 195.388C147.812 195.388 147.396 148.089 148.871 144.5C148.871 144.5 150.422 135.613 156.437 135.442L153.751 135.699C153.751 135.699 148.304 135.271 146.715 147.363C145.164 159.455 145.24 195.773 145.24 195.773L147.812 195.388Z" fill="#0E538C"/>
<path d="M136.161 197.054C136.161 197.054 134.534 142.706 135.82 136.98H134.193C134.193 136.98 132.756 141.638 133.021 154.669C133.21 162.488 133.021 197.054 133.021 197.054H136.161Z" fill="#0E538C"/>
<path d="M116.982 172.956C116.982 172.956 109.114 178.596 107.374 178.554C105.671 178.511 100.716 178.383 101.245 179.152C101.775 179.921 107.374 180.989 107.374 180.989L116.982 172.956Z" fill="#FFE3CA"/>
<path d="M117.55 184.834C117.55 184.834 154.81 196.157 159.917 177.87C165.326 158.472 165.402 163.514 165.402 163.514L153.713 150.781C153.713 150.781 147.434 173.17 145.656 173.683C135.859 176.503 124.737 174.708 120.803 173.896C120.349 173.469 119.857 172.999 119.252 172.358C118.76 171.845 118.344 171.205 118.042 170.521C117.663 169.666 117.209 168.555 117.134 167.829C117.02 166.932 116.037 166.675 115.696 167.359C115.356 168.043 115.583 170.478 116.945 172.871C116.945 172.871 108.055 179.323 107.336 180.861L117.55 184.834Z" fill="#FFE3CA"/>
<path d="M157.307 135.442C157.307 135.442 165.818 137.279 166.158 152.405C166.499 167.53 161.089 179.109 161.089 179.109L146.639 170.606L157.307 135.442Z" fill="#00DCDE"/>
<path d="M231.525 284.73H192.486C190.671 284.73 189.195 283.063 189.195 281.013C189.195 278.962 190.671 277.295 192.486 277.295H231.487C233.302 277.295 234.778 278.962 234.778 281.013C234.816 283.063 233.34 284.73 231.525 284.73Z" fill="#D3D3D3"/>
<path d="M203.921 327.938V331.698H237.512V327.938H203.921Z" fill="#0B4870"/>
<path d="M207.012 330.96C207.315 332.926 206.142 334.763 204.402 335.062C202.662 335.404 201.036 334.079 200.771 332.114C200.468 330.149 201.641 328.311 203.381 328.012C205.121 327.67 206.748 328.995 207.012 330.96Z" fill="#0B4870"/>
<path d="M222.219 282.294H218.89V329.465H222.219V282.294Z" fill="#0B4870"/>
<path d="M240.603 330.96C240.906 332.926 239.733 334.763 237.993 335.062C236.253 335.404 234.626 334.079 234.362 332.114C234.059 330.149 235.232 328.311 236.972 328.012C238.712 327.67 240.338 328.995 240.603 330.96Z" fill="#0B4870"/>
<path d="M241.738 284.73H204.893C202.397 284.73 200.581 281.953 201.3 279.175L218.89 210.641C219.344 208.804 220.819 207.522 222.483 207.522H259.327C261.824 207.522 263.64 210.3 262.921 213.077L245.331 281.611C244.877 283.491 243.402 284.73 241.738 284.73Z" fill="#D3D3D3"/>
<path d="M236.669 284.73H204.554C202.057 284.73 200.241 281.953 200.96 279.175L218.55 210.641C219.004 208.804 220.479 207.522 222.143 207.522H254.259C256.756 207.522 258.572 210.3 257.853 213.077L240.263 281.611C239.809 283.491 238.334 284.73 236.669 284.73Z" fill="#F2F2F2"/>
<path d="M241.738 284.73H202.7C200.884 284.73 199.409 283.063 199.409 281.013C199.409 278.962 200.884 277.295 202.7 277.295H241.7C243.516 277.295 244.991 278.962 244.991 281.013C245.029 283.063 243.554 284.73 241.738 284.73Z" fill="#D3D3D3"/>
<path d="M209.471 226.536L200.808 252.556L202.851 257.641L214.54 255.334L217.868 227.519L209.471 226.536Z" fill="#FCD2B1"/>
<path d="M214.729 213.889C214.729 213.889 207.882 217.948 206.369 231.279L215.41 236.876L214.729 213.889Z" fill="#2A94F4"/>
<path d="M225.775 208.804L214.994 213.931L206.482 256.701L234.929 269.348L250.098 220.554C250.098 220.554 247.639 210.385 233.416 207.779L225.775 208.804Z" fill="#2A94F4"/>
<path d="M254.524 259.008C254.524 258.453 254.221 255.077 254.07 254.522L249.379 220.64C248.471 215.982 243.856 213.632 240.187 215.94C237.463 217.649 236.253 221.28 237.312 224.57L242.873 253.667L254.524 259.008Z" fill="#FFE3CA"/>
<path d="M248.131 251.787L216.393 249.01L214.805 255.334L245.369 266.998C250.06 268.793 254.864 264.605 254.524 259.008C254.297 255.163 251.573 252.087 248.131 251.787Z" fill="#FFE3CA"/>
<path d="M246.202 214.914C246.202 214.914 250.249 216.88 251.99 228.758L237.691 233.714C237.691 233.714 228.347 221.879 238.334 213.974L246.202 214.914Z" fill="#2A94F4"/>
<path d="M206.444 255.718C207.617 259.222 213.48 259.393 216.62 258.068C219.722 256.744 222.937 254.736 221.765 251.189C220.592 247.686 215.41 245.592 212.005 246.447C207.882 247.515 205.272 252.172 206.444 255.718Z" fill="#FFE3CA"/>
<path d="M223.732 260.504L201.073 257.214L201.414 254.308L224.073 257.598C224.791 257.684 225.283 258.41 225.17 259.222C225.056 260.034 224.413 260.589 223.732 260.504Z" fill="#F2F2F2"/>
<path d="M204.061 257.641L174.026 253.283C172.286 253.027 170.924 251.531 170.697 249.566L167.558 224.955C167.293 222.776 168.919 220.896 170.849 221.195L198.425 225.211C199.598 225.382 200.506 226.408 200.657 227.689L204.061 257.641Z" fill="#F2F2F2"/>
<path d="M168.163 322.629L160.37 326.26L155.453 326.688C153.183 326.858 151.292 328.738 150.838 331.217L150.611 332.37L177.317 336.13L177.847 323.996L168.163 322.629Z" fill="#0B4870"/>
<path d="M177.847 323.996L180.457 310.793L170.811 309.298L168.163 322.629L177.847 323.996Z" fill="#FFE3CA"/>
<path d="M234.929 269.348C234.929 269.348 234.172 276.654 222.559 277.637H194.642L181.478 319.125L167.633 316.604L181.478 255.676L213.216 259.649L234.929 269.348Z" fill="#0B4870"/>
<path d="M145.807 298.787L137.447 297.377L133.021 294.856C130.978 293.702 128.52 294.215 126.969 296.052L126.25 296.907L147.434 315.621L153.41 305.538L145.807 298.787Z" fill="#0E538C"/>
<path d="M153.486 305.581L160.749 295.155L153.107 288.276L145.807 298.787L153.486 305.581Z" fill="#FFE3CA"/>
<path d="M206.483 256.701L184.959 249.437C184.051 249.138 183.181 248.754 182.273 248.412C180.419 247.6 175.729 246.489 172.097 252.77C167.444 260.845 148.795 291.182 148.795 291.182L160.182 300.667L185.034 264.905C187.115 261.657 190.444 259.735 194 259.735L213.216 259.692L206.483 256.701Z" fill="#0E538C"/>
<path d="M234.172 195.473C234.551 194.662 241.208 181.245 235.118 177.87C235.118 177.87 234.324 170.777 227.325 171.546C220.327 172.315 222.219 174.623 217.755 173.469C213.291 172.315 209.093 174.922 209.433 179.152C209.773 183.382 212.61 185.176 217.755 184.151C222.9 183.125 226.985 183.894 226.985 183.894L231.297 185.304L234.172 195.473Z" fill="#00DCDE"/>
<path d="M235.005 210.001L234.475 192.953L224.035 197.14L224.867 210.812C225.056 213.974 226.607 216.452 229.406 216.239L230.276 216.196C233.075 215.897 235.194 213.162 235.005 210.001Z" fill="#FFE3CA"/>
<path d="M233.567 195.302C233.567 195.302 235.534 209.531 224.791 210.342L224.299 203.591L233.567 195.302Z" fill="#FCD2B1"/>
<path d="M224.715 207.181H225.094C230.465 206.882 234.588 201.754 234.324 195.687L233.794 183.296C233.718 181.715 232.546 180.519 231.146 180.605L218.36 181.288C215.902 181.416 213.972 183.809 214.086 186.586L214.502 196.713C214.805 202.78 219.344 207.437 224.715 207.181Z" fill="#FFE3CA"/>
<path d="M231.865 191.97C231.94 194.021 233.491 195.602 235.307 195.473C237.123 195.388 238.522 193.636 238.409 191.585C238.333 189.534 236.782 187.953 234.967 188.082C233.189 188.167 231.789 189.919 231.865 191.97Z" fill="#FFE3CA"/>
<path d="M230.314 182.057L230.957 195.858C231.032 197.097 230.579 198.379 229.633 199.062C229.065 199.532 228.612 200.131 227.59 199.96C224.677 199.49 226.039 197.054 220.1 197.396C214.691 197.738 215.107 201.113 215.107 201.113C215.107 201.113 216.166 207.565 223.58 207.864C230.995 208.163 234.702 202.865 233.832 195.815L233.113 181.245L230.314 182.057Z" fill="#00DCDE"/>
<path d="M214.464 184.407C214.464 184.407 217.906 185.005 222.937 183.638C227.931 182.228 231.902 186.8 231.902 186.8C231.902 186.8 232.962 188.893 233.226 188.851C233.491 188.808 235.004 188.124 235.004 188.124L234.929 181.758L231.259 178.511L221.084 178.041L215.069 179.536L214.464 184.407Z" fill="#00DCDE"/>
</g>
<defs>
<filter id="filter0_d_455_240" x="36" y="53" width="329.986" height="342.322" filterUnits="userSpaceOnUse" color-interpolation-filters="sRGB">
<feFlood flood-opacity="0" result="BackgroundImageFix"/>
<feColorMatrix in="SourceAlpha" type="matrix" values="0 0 0 0 0 0 0 0 0 0 0 0 0 0 0 0 0 0 127 0" result="hardAlpha"/>
<feOffset dx="3" dy="35"/>
<feGaussianBlur stdDeviation="10.5"/>
<feComposite in2="hardAlpha" operator="out"/>
<feColorMatrix type="matrix" values="0 0 0 0 0 0 0 0 0 0 0 0 0 0 0 0 0 0 0.25 0"/>
<feBlend mode="normal" in2="BackgroundImageFix" result="effect1_dropShadow_455_240"/>
<feBlend mode="normal" in="SourceGraphic" in2="effect1_dropShadow_455_240" result="shape"/>
</filter>
<linearGradient id="paint0_linear_455_240" x1="330.879" y1="30.985" x2="276.699" y2="72.0572" gradientUnits="userSpaceOnUse">
<stop offset="0.431597" stop-color="white"/>
<stop offset="0.900747" stop-color="white" stop-opacity="0.84"/>
</linearGradient>
<linearGradient id="paint1_linear_455_240" x1="314.966" y1="102.099" x2="287.95" y2="120.932" gradientUnits="userSpaceOnUse">
<stop offset="0.431597" stop-color="white"/>
<stop offset="0.900747" stop-color="white" stop-opacity="0.75"/>
</linearGradient>
<linearGradient id="paint2_linear_455_240" x1="197.993" y1="53" x2="109.069" y2="296.772" gradientUnits="userSpaceOnUse">
<stop stop-color="#00DCDE"/>
<stop offset="1" stop-color="#00DCDE" stop-opacity="0"/>
</linearGradient>
<clipPath id="clip0_455_240">
<rect width="414" height="383" fill="white" transform="translate(0 11)"/>
</clipPath>
</defs>
</svg>
