<svg width="418" height="412" viewBox="0 0 418 412" fill="none" xmlns="http://www.w3.org/2000/svg">
<path d="M127.439 22.2626C175.182 -13.4428 242.274 -6.16487 284.481 46.8333C307.558 75.8206 316.931 115.694 340.885 144.059C367.853 175.97 400.083 207.01 412.307 250.553C425.298 296.833 413.897 349.893 384.845 385.288C349.49 428.333 297.527 415.395 248.414 414.71C47.3015 411.849 -102.176 259.51 88.0282 71.7151C103.924 55.9152 111.653 34.0192 127.439 22.2626Z" fill="url(#paint0_linear_2003_225)"/>
<path d="M376.185 159.672C375.143 160.045 369.662 164.649 369.662 164.649L363.194 169.376L362.92 166.701C362.92 166.701 360.289 160.73 357.055 160.978C357.055 160.978 360.946 166.39 361.44 169.998C361.933 173.606 362.152 176.094 362.152 176.094L357.877 180.884L365.003 191.272L381.721 177.089C381.721 177.089 377.226 159.299 376.185 159.672Z" fill="#DBA17B"/>
<path d="M379.528 159.672L376.623 186.109L365.003 186.42L362.207 159.672H379.528Z" fill="#00DCDE"/>
<path d="M382.05 160.045H360.124V157.433H362.207V153.327L380.021 156.313L380.076 157.806H382.05V160.356" fill="#0E538C"/>
<path d="M380.57 177.587C384.626 178.022 379.528 165.395 379.528 165.395C379.528 165.395 368.565 164.524 368.456 165.208C368.346 165.893 368.401 167.012 369.278 167.261C370.155 167.51 377.007 168.567 377.007 168.567C377.007 168.567 369.881 168.941 369.991 169.812C370.21 171.118 371.032 171.242 373.17 171.615C374.979 171.926 378.925 172.051 378.925 172.051C378.925 172.051 371.416 172.237 371.58 172.797C371.745 173.357 371.251 175.099 373.828 174.663C379.693 173.793 380.57 177.587 380.57 177.587Z" fill="#DBA17B"/>
<path d="M331.237 228.408C331.237 228.408 342.365 317.671 337.212 336.644C332.06 355.616 330.031 372.722 330.031 372.722L304.159 364.138C304.159 364.138 312.71 319.475 314.026 310.891C315.287 302.307 302.076 232.576 302.076 232.576L331.237 228.408Z" fill="#0B4870"/>
<path d="M319.014 234.815L306.79 378.321H282.069C282.069 378.321 290.072 226.418 288.647 225.111C287.222 223.929 319.014 234.815 319.014 234.815Z" fill="#0B4870"/>
<path d="M328.77 147.356C328.77 147.356 331.402 195.502 337.047 193.76C342.748 192.081 357.986 179.515 357.986 179.515L367.25 191.085C367.25 191.085 339.021 226.729 327.4 212.173C315.834 197.555 328.77 147.356 328.77 147.356Z" fill="#0B4870"/>
<path d="M321.151 402.332L322.851 392.628L304.817 384.417L301.967 398.848L302.953 399.035C307.009 401.15 326.688 411.476 329.757 411.787C333.156 412.16 321.151 402.332 321.151 402.332Z" fill="#0B4870"/>
<path d="M278.287 261.065L280.26 264.3C280.26 264.3 281.192 266.477 283.494 269.774C284.097 270.645 284.81 271.391 285.632 271.951C286.619 272.635 287.989 273.506 288.866 273.755C289.962 274.004 290.182 275.621 289.25 276.119C288.318 276.554 285.358 275.932 282.508 273.444C279.657 271.018 280.973 277.176 281.466 279.478C281.905 281.717 283.001 288.809 282.508 289.555C281.795 290.613 280.644 289.866 280.26 287.627C279.877 285.325 278.232 278.607 277.191 278.98C276.149 279.291 278.561 290.799 278.561 290.799C278.561 290.799 279.438 293.163 278.232 293.598C276.095 294.345 274.286 281.904 274.176 280.722C274.066 279.913 272.915 280.224 273.08 281.095C273.244 282.028 275.711 292.479 273.573 293.287C271.874 293.909 272.038 283.086 270.449 281.22C268.859 279.354 271.107 289.431 269.462 289.928C268.859 290.115 268.366 290.177 267.818 284.143C267.27 277.985 268.147 261.128 268.147 261.128L278.452 261.252" fill="#FFE3CA"/>
<path d="M314.08 131.183C313.861 129.254 314.738 121.23 314.738 121.23C314.738 121.23 321.206 120.67 321.809 113.454C322.412 106.176 322.467 89.3811 322.467 89.3811L310.901 82.4142L297.636 93.0512L294.622 101.013L298.568 119.986V129.503L314.08 131.183Z" fill="#DBA17B"/>
<path d="M314.738 121.23C314.738 121.23 310.408 121.105 306.352 117.684C306.352 117.684 308.106 123.096 314.574 123.034L314.738 121.23Z" fill="#C68C6B"/>
<path d="M294.841 108.976C296.595 113.392 297.636 119.861 297.636 119.861C298.568 121.852 298.897 115.507 298.897 115.507C298.897 115.507 299.719 109.411 298.952 107.047C298.952 107.047 295.663 108.229 294.95 101.573C294.567 98.2764 298.952 96.7213 300.158 100.702L302.898 101.013C302.898 101.013 303.118 88.5725 309.421 90.874C309.421 90.874 313.971 94.0465 316.712 92.1181C319.452 90.1898 319.233 89.5055 319.233 89.5055C319.233 89.5055 320.549 92.8024 324.057 90.6252C327.565 88.4481 328.003 84.6536 326.797 82.8497C326.085 81.7922 325.427 80.6103 324.276 80.3615C323.125 80.1127 321.864 80.6725 321.151 81.6678C322.028 80.2371 321.426 78.1221 320.11 77.1269C318.849 76.1938 317.15 76.256 315.725 76.878C314.3 77.5001 313.094 78.6198 311.943 79.7395C311.121 77.1269 308.654 75.2607 306.242 75.5095C303.775 75.7584 301.638 77.9977 301.199 80.7347C299.884 78.8686 297.362 78.4332 295.444 79.4906C293.525 80.5481 292.319 82.7875 291.936 85.1512C291.552 87.515 291.99 89.941 292.813 92.1803C291.333 91.2473 289.305 91.9315 288.318 93.4866C287.331 95.0417 287.331 97.2189 288.044 98.9606C288.756 100.702 290.127 102.009 291.607 102.88C290.511 103.875 290.127 105.865 290.839 107.296C291.552 108.727 293.196 109.473 294.512 108.913" fill="#0E538C"/>
<path d="M272.696 150.279C272.696 150.279 277.136 127.077 298.568 129.503C318.192 131.742 318.192 131.742 318.192 131.742C318.192 131.742 331.676 138.212 329.757 156.438C327.894 174.663 326.962 191.334 327.455 194.507C327.948 197.741 332.662 226.418 331.237 228.408C317.095 247.94 280.973 216.776 280.973 216.776L272.696 150.279Z" fill="#00DCDE"/>
<path d="M298.568 129.503L293.58 265.047L278.726 255.902L280.261 135.661C280.261 135.661 284.262 127.886 298.568 129.503Z" fill="#0E538C"/>
<path d="M267.598 263.491L272.696 150.217C274.286 143.25 277.684 137.901 282.069 133.422V264.984L267.598 263.491Z" fill="#0E538C"/>
<path d="M314.081 131.183C314.081 131.183 327.455 138.709 326.852 164.151C326.194 189.593 334.91 261.501 334.91 261.501L346.092 258.95C346.092 258.95 333.156 190.774 332.608 178.831C332.059 166.639 332.991 149.408 325.756 137.527C320.549 129.005 314.081 131.183 314.081 131.183Z" fill="#0E538C"/>
<path d="M298.568 129.503C298.568 129.503 294.183 140.7 294.622 144.743C295.06 148.849 296.595 157.433 296.595 157.433C296.595 157.433 293.361 159.672 293.635 161.601C293.854 163.529 296.43 194.009 296.43 194.009L298.568 129.503Z" fill="#0B4870"/>
<path d="M282.069 265.047C283.44 237.677 283.111 184.554 284.481 157.122Z" fill="#0B4870"/>
<path d="M321.261 391.944C321.042 391.819 325.811 371.354 325.811 371.354L309.969 366.129L306.626 385.288L321.261 391.944Z" fill="#DBA17B"/>
<path d="M302.789 378.383H284.755V394.432H302.789V378.383Z" fill="#DBA17B"/>
<path d="M304.543 403.14L302.899 393.436H283.44L285.468 407.743L286.509 407.806C290.949 408.055 312.601 409.361 315.561 408.366C318.959 407.184 304.543 403.14 304.543 403.14Z" fill="#0B4870"/>
<path d="M152.161 88.2615C153.695 94.1087 155.23 99.9559 156.765 105.803C156.984 106.612 157.203 107.42 157.149 108.229C157.094 110.717 155.066 112.646 152.928 113.081C150.79 113.516 148.598 112.894 146.515 112.21C145.967 114.698 143.336 115.756 141.088 116.253C131.112 118.368 120.533 116.876 111.324 112.024C115.271 105.554 118.505 98.5874 120.917 91.1851C128.755 91.5583 136.593 91.9937 144.432 92.367C145.802 92.4292 147.227 92.4914 148.543 91.9937C149.858 91.4339 151.009 90.1898 151.119 88.6347" fill="#0E538C"/>
<path d="M61.1694 165.208L58.8672 162.16C58.8672 162.16 57.2228 160.605 54.8658 157.122C54.2628 156.251 53.8243 155.193 53.4954 154.136C53.1117 152.83 52.6732 151.088 52.728 150.03C52.7829 148.724 51.4125 148.102 50.7547 149.035C50.097 149.968 49.9874 153.514 51.4125 157.308C52.8377 161.103 47.74 158.117 45.8763 156.997C44.0126 155.94 38.0928 152.954 37.3254 153.327C36.2291 153.887 36.558 155.318 38.4764 156.375C40.3949 157.433 45.8215 160.916 45.3282 161.974C44.78 163.031 35.3521 157.495 35.3521 157.495C35.3521 157.495 33.4884 155.94 32.8306 157.184C31.6247 159.423 42.0942 164.524 43.0808 164.96C43.7934 165.271 43.2453 166.515 42.4779 166.079C41.7105 165.706 33.1595 160.294 31.8988 162.534C30.967 164.275 40.4497 166.826 41.6557 169.065C42.8616 171.304 34.6395 166.328 33.7625 168.008C33.4336 168.63 33.2691 169.189 38.4216 171.242C43.6289 173.357 58.6479 176.592 58.6479 176.592L61.0597 164.897" fill="#FF957E"/>
<path d="M103.54 137.59C103.54 137.59 94.9895 165.644 92.3584 165.893C74.3247 167.759 54.7013 158.926 54.7013 158.926L49.7681 174.726C49.7681 174.726 100.855 200.665 111.817 175.659C123.493 149.16 122.89 144.992 122.89 144.992L103.54 137.59Z" fill="#FCD2B1"/>
<path d="M104.691 296.211C113.845 343.922 174.031 388.274 174.031 388.274L184.281 374.029C184.281 374.029 135.88 325.074 133.852 303.302C131.769 281.531 147.83 247.38 147.83 247.38L131.166 239.356L104.691 296.211Z" fill="#0B4870"/>
<path d="M125.027 122.474C125.302 120.483 124.644 112.272 124.644 112.272C124.644 112.272 118.011 111.464 117.628 103.999C117.244 96.5347 117.628 79.3663 117.628 79.3663L129.687 72.6482L142.952 84.0316L140.923 121.292L125.027 122.474Z" fill="#FFE3CA"/>
<path d="M142.02 89.8788C142.02 89.8788 131.167 88.6969 129.303 77.5623L117.573 89.8788C117.573 89.8788 114.01 81.6056 120.533 73.9545C127.056 66.3033 131.495 67.8584 134.072 67.8584C136.429 67.8584 148.488 70.782 152.051 86.2709C152.325 87.3906 152.544 90.1898 152.708 91.4339L142.02 89.8788Z" fill="#0E538C"/>
<path d="M124.699 112.335C124.699 112.335 129.139 112.397 133.414 108.976C133.414 108.976 131.441 114.45 124.863 114.139L124.699 112.335Z" fill="#FCD2B1"/>
<path d="M111.05 206.512C111.05 209.187 111.872 212.857 111.872 212.857L158.464 228.097C158.464 228.097 161.808 204.211 153.312 190.899C149.42 184.803 150.297 176.219 151.886 168.878L157.368 143.81L150.023 120.235L120.697 122.474C120.697 122.474 103.705 120.546 97.7852 146.049L108.693 164.649L108.803 171.678L111.05 206.512Z" fill="#00DCDE"/>
<path d="M156.491 197.181C156.984 197.181 165.425 218.642 157.806 231.394C157.094 232.576 155.34 235.499 152.983 239.667C141.691 259.324 115.929 305.542 115.051 312.322C114.01 320.533 93.1808 406.686 93.1808 406.686L77.6685 403.887L90.3305 306.164L111.05 206.512L156.491 197.181Z" fill="#0E538C"/>
<path d="M129.577 76.6914C129.577 76.6914 127.165 81.9788 128.207 85.9599L117.683 89.0701C117.683 89.0079 115.271 73.8922 129.577 76.6914Z" fill="#0E538C"/>
<path d="M152.16 90.3142C152.16 90.3142 153.366 107.483 141.691 110.531L142.458 89.8166L152.16 90.3142Z" fill="#0E538C"/>
<path d="M104.363 170.309L78.2165 182.812L35.4069 183.87L14.5776 143.748L58.5931 140.389L77.6684 179.204L104.198 167.51L104.363 170.309Z" fill="#00DCDE"/>
<path d="M99.6488 140.824L92.3037 161.165L108.748 170.434L110.283 152.643L99.6488 140.824Z" fill="#00DCDE"/>
<path d="M131.331 118.742L125.356 121.665L126.562 135.35L134.127 119.986L131.331 118.742Z" fill="#FFE3CA"/>
<path d="M76.2435 403.887C76.2435 403.887 62.5948 407.992 65.9933 409.174C69.3917 410.356 93.0165 407.432 93.0165 407.432L93.7839 404.384L76.2435 403.887Z" fill="#0E538C"/>
<path d="M93.0167 407.432L97.8403 392.69H76.9014L76.2437 403.887L93.0167 407.432Z" fill="#0E538C"/>
<path d="M174.196 389.269C174.196 389.269 170.742 404.82 173.319 402.021C175.84 399.222 185.158 374.402 185.158 374.402L183.185 372.163L174.196 389.269Z" fill="#0B4870"/>
<path d="M185.104 374.402L176.059 362.459L165.919 383.173L174.196 389.269L185.104 374.402Z" fill="#0B4870"/>
<path d="M143.719 99.2716C143.664 98.0276 143.664 96.7213 144.048 95.6016C144.432 94.4197 145.309 93.4244 146.405 93.3C147.666 93.1756 148.872 94.3575 149.091 95.726C149.31 97.1567 148.543 98.5874 147.446 99.3339C146.35 100.018 144.98 100.018 143.774 99.4583" fill="#FFE3CA"/>
<path d="M136.264 207.507C136.264 207.507 135.661 138.647 137.799 133.422C137.799 133.422 140.046 120.483 148.762 120.235L144.87 120.608C144.87 120.608 136.977 119.986 134.675 137.59C132.427 155.193 132.537 208.067 132.537 208.067L136.264 207.507Z" fill="#0E538C"/>
<path d="M119.382 209.933C119.382 209.933 117.025 130.809 118.889 122.474H116.532C116.532 122.474 114.449 129.254 114.832 148.227C115.106 159.61 114.832 209.933 114.832 209.933H119.382Z" fill="#0E538C"/>
<path d="M91.5911 174.85C91.5911 174.85 80.1898 183.061 77.6684 182.999C75.2017 182.937 68.0211 182.75 68.7885 183.87C69.5559 184.989 77.6684 186.545 77.6684 186.545L91.5911 174.85Z" fill="#FFE3CA"/>
<path d="M92.4135 192.143C92.4135 192.143 146.405 208.627 153.805 182.004C161.643 153.763 161.753 161.103 161.753 161.103L144.816 142.566C144.816 142.566 135.716 175.161 133.14 175.908C118.943 180.013 102.828 177.4 97.1275 176.219C96.4697 175.596 95.7571 174.912 94.8801 173.979C94.1675 173.233 93.5646 172.3 93.1261 171.304C92.5779 170.06 91.9202 168.443 91.8106 167.386C91.6461 166.079 90.221 165.706 89.7276 166.701C89.2343 167.697 89.5632 171.242 91.5365 174.726C91.5365 174.726 78.6552 184.118 77.6138 186.358L92.4135 192.143Z" fill="#FFE3CA"/>
<path d="M150.023 120.235C150.023 120.235 162.356 122.909 162.849 144.93C163.342 166.95 155.504 183.808 155.504 183.808L134.565 171.429L150.023 120.235Z" fill="#00DCDE"/>
<path d="M257.567 337.577H201C198.368 337.577 196.231 335.151 196.231 332.165C196.231 329.179 198.368 326.753 201 326.753H257.513C260.144 326.753 262.281 329.179 262.281 332.165C262.336 335.151 260.198 337.577 257.567 337.577Z" fill="#D3D3D3"/>
<path d="M217.569 400.482V405.956H266.244V400.482H217.569Z" fill="#0B4870"/>
<path d="M222.048 404.882C222.487 407.743 220.787 410.418 218.266 410.854C215.744 411.351 213.387 409.423 213.004 406.562C212.565 403.7 214.264 401.025 216.786 400.59C219.307 400.092 221.664 402.021 222.048 404.882Z" fill="#0B4870"/>
<path d="M244.083 334.031H239.26V402.705H244.083V334.031Z" fill="#0B4870"/>
<path d="M270.723 404.882C271.161 407.743 269.462 410.418 266.941 410.854C264.419 411.351 262.062 409.423 261.679 406.562C261.24 403.7 262.939 401.025 265.461 400.59C267.982 400.092 270.339 402.021 270.723 404.882Z" fill="#0B4870"/>
<path d="M272.367 337.577H218.978C215.361 337.577 212.73 333.534 213.771 329.49L239.26 229.714C239.917 227.04 242.055 225.173 244.467 225.173H297.856C301.473 225.173 304.104 229.217 303.063 233.26L277.574 333.036C276.917 335.773 274.779 337.577 272.367 337.577Z" fill="#D3D3D3"/>
<path d="M265.022 337.577H218.485C214.868 337.577 212.236 333.534 213.278 329.49L238.766 229.714C239.424 227.04 241.562 225.173 243.974 225.173H290.511C294.128 225.173 296.759 229.217 295.718 233.26L270.229 333.036C269.572 335.773 267.434 337.577 265.022 337.577Z" fill="#F2F2F2"/>
<path d="M272.367 337.577H215.799C213.168 337.577 211.031 335.151 211.031 332.165C211.031 329.179 213.168 326.753 215.799 326.753H272.312C274.943 326.753 277.081 329.179 277.081 332.165C277.136 335.151 274.998 337.577 272.367 337.577Z" fill="#D3D3D3"/>
<path d="M225.611 252.854L213.059 290.737L216.019 298.139L232.956 294.78L237.78 254.285L225.611 252.854Z" fill="#FCD2B1"/>
<path d="M233.23 234.442C233.23 234.442 223.309 240.351 221.116 259.759L234.217 267.908L233.23 234.442Z" fill="#2A94F4"/>
<path d="M249.236 227.04L233.614 234.504L221.281 296.771L262.501 315.183L284.481 244.146C284.481 244.146 280.918 229.341 260.308 225.547L249.236 227.04Z" fill="#2A94F4"/>
<path d="M290.894 300.13C290.894 299.321 290.456 294.407 290.236 293.598L283.439 244.27C282.124 237.49 275.437 234.069 270.12 237.428C266.173 239.916 264.419 245.203 265.954 249.993L274.011 292.354L290.894 300.13Z" fill="#FFE3CA"/>
<path d="M281.631 289.617L235.642 285.574L233.34 294.78L277.629 311.762C284.426 314.375 291.388 308.279 290.894 300.13C290.565 294.531 286.619 290.053 281.631 289.617Z" fill="#FFE3CA"/>
<path d="M278.835 235.935C278.835 235.935 284.7 238.796 287.222 256.089L266.502 263.305C266.502 263.305 252.963 246.074 267.434 234.566L278.835 235.935Z" fill="#2A94F4"/>
<path d="M221.226 295.34C222.925 300.441 231.421 300.69 235.971 298.761C240.466 296.833 245.125 293.909 243.425 288.746C241.726 283.646 234.217 280.598 229.284 281.842C223.309 283.397 219.527 290.177 221.226 295.34Z" fill="#FFE3CA"/>
<path d="M246.276 302.307L213.442 297.517L213.936 293.287L246.769 298.077C247.811 298.201 248.523 299.259 248.359 300.441C248.194 301.623 247.263 302.431 246.276 302.307Z" fill="#F2F2F2"/>
<path d="M217.773 298.139L174.25 291.794C171.729 291.421 169.756 289.244 169.427 286.383L164.877 250.553C164.494 247.38 166.851 244.643 169.646 245.079L209.605 250.926C211.305 251.175 212.62 252.668 212.839 254.534L217.773 298.139Z" fill="#F2F2F2"/>
<path d="M165.754 392.752L154.463 398.04L147.337 398.662C144.048 398.91 141.307 401.647 140.649 405.255L140.321 406.935L179.019 412.409L179.787 394.743L165.754 392.752Z" fill="#0B4870"/>
<path d="M179.786 394.743L183.569 375.522L169.591 373.344L165.754 392.752L179.786 394.743Z" fill="#FFE3CA"/>
<path d="M262.501 315.183C262.501 315.183 261.404 325.82 244.577 327.251H204.124L185.049 387.651L164.987 383.981L185.049 295.278L231.037 301.063L262.501 315.183Z" fill="#0B4870"/>
<path d="M133.359 358.042L121.245 355.989L114.832 352.319C111.872 350.64 108.309 351.386 106.062 354.061L105.021 355.305L135.716 382.551L144.377 367.87L133.359 358.042Z" fill="#0E538C"/>
<path d="M144.487 367.933L155.011 352.755L143.938 342.74L133.359 358.042L144.487 367.933Z" fill="#FFE3CA"/>
<path d="M221.281 296.771L190.091 286.196C188.776 285.761 187.515 285.201 186.2 284.703C183.514 283.521 176.717 281.904 171.455 291.048C164.713 302.805 137.689 346.97 137.689 346.97L154.188 360.779L190.201 308.714C193.216 303.986 198.039 301.187 203.192 301.187L231.037 301.125L221.281 296.771Z" fill="#0E538C"/>
<path d="M261.404 207.632C261.953 206.45 271.6 186.918 262.775 182.004C262.775 182.004 261.624 171.678 251.483 172.797C241.343 173.917 244.083 177.276 237.615 175.596C231.147 173.917 225.063 177.711 225.556 183.87C226.049 190.028 230.161 192.641 237.615 191.148C245.07 189.655 250.99 190.774 250.99 190.774L257.239 192.827L261.404 207.632Z" fill="#00DCDE"/>
<path d="M262.61 228.781L261.843 203.962L246.714 210.058L247.92 229.963C248.194 234.566 250.442 238.174 254.498 237.863L255.759 237.801C259.815 237.366 262.884 233.384 262.61 228.781Z" fill="#FFE3CA"/>
<path d="M260.528 207.383C260.528 207.383 263.378 228.097 247.811 229.279L247.098 219.451L260.528 207.383Z" fill="#FCD2B1"/>
<path d="M247.701 224.676H248.249C256.033 224.24 262.007 216.776 261.624 207.943L260.856 189.904C260.747 187.602 259.047 185.86 257.019 185.985L238.492 186.98C234.929 187.167 232.134 190.65 232.298 194.693L232.901 209.436C233.34 218.269 239.917 225.049 247.701 224.676Z" fill="#FFE3CA"/>
<path d="M258.061 202.531C258.17 205.517 260.418 207.818 263.049 207.632C265.68 207.507 267.708 204.957 267.543 201.971C267.434 198.985 265.186 196.684 262.555 196.87C259.979 196.995 257.951 199.545 258.061 202.531Z" fill="#FFE3CA"/>
<path d="M255.813 188.1L256.745 208.192C256.855 209.996 256.197 211.862 254.827 212.857C254.005 213.541 253.347 214.412 251.867 214.163C247.646 213.479 249.62 209.933 241.014 210.431C233.175 210.929 233.778 215.843 233.778 215.843C233.778 215.843 235.313 225.236 246.057 225.671C256.8 226.107 262.172 218.393 260.911 208.129L259.87 186.918L255.813 188.1Z" fill="#00DCDE"/>
<path d="M232.846 191.521C232.846 191.521 237.834 192.392 245.125 190.401C252.36 188.348 258.116 195.004 258.116 195.004C258.116 195.004 259.65 198.052 260.034 197.99C260.418 197.928 262.61 196.933 262.61 196.933L262.501 187.664L257.184 182.937L242.439 182.252L233.723 184.43L232.846 191.521Z" fill="#00DCDE"/>
<defs>
<linearGradient id="paint0_linear_2003_225" x1="208.979" y1="0.210083" x2="79.0527" y2="354.716" gradientUnits="userSpaceOnUse">
<stop stop-color="#00DCDE"/>
<stop offset="1" stop-color="#00DCDE" stop-opacity="0"/>
</linearGradient>
</defs>
</svg>
